<svg width="1000" height="752" viewBox="0 0 1000 752" fill="none" xmlns="http://www.w3.org/2000/svg">
<path d="M1000 660.693H0V661.198H1000V660.693Z" fill="#EBEBEB"/>
<path d="M899.8 693.163H833.56V693.667H899.8V693.163Z" fill="#EBEBEB"/>
<path d="M662.44 698.652H645.06V699.156H662.44V698.652Z" fill="#EBEBEB"/>
<path d="M831.56 674.436H793.18V674.94H831.56V674.436Z" fill="#EBEBEB"/>
<path d="M191.3 677.826H104.92V678.331H191.3V677.826Z" fill="#EBEBEB"/>
<path d="M221.78 677.826H209.12V678.331H221.78V677.826Z" fill="#EBEBEB"/>
<path d="M450.3 686.342H262.94V686.846H450.3V686.342Z" fill="#EBEBEB"/>
<path d="M474 570.69H87.8199C84.7946 570.685 81.895 569.469 79.7577 567.308C77.6203 565.148 76.4199 562.22 76.4199 559.168V11.4219C76.4463 8.38686 77.6583 5.48488 79.7928 3.34628C81.9273 1.20769 84.8119 0.00519915 87.8199 0H474C477.029 0 479.933 1.214 482.075 3.37494C484.217 5.53588 485.42 8.46675 485.42 11.5228V559.168C485.42 562.224 484.217 565.155 482.075 567.315C479.933 569.476 477.029 570.69 474 570.69V570.69ZM87.8199 0.403602C84.9272 0.408947 82.1548 1.57215 80.1112 3.6379C78.0677 5.70365 76.9199 8.50314 76.9199 11.4219V559.168C76.9199 562.086 78.0677 564.886 80.1112 566.952C82.1548 569.017 84.9272 570.18 87.8199 570.186H474C476.894 570.181 479.669 569.018 481.716 566.953C483.762 564.888 484.915 562.088 484.92 559.168V11.4219C484.915 8.50129 483.762 5.70184 481.716 3.63667C479.669 1.5715 476.894 0.408936 474 0.403602H87.8199Z" fill="#EBEBEB"/>
<path d="M906.62 570.69H520.42C517.393 570.685 514.491 569.469 512.351 567.31C510.21 565.15 509.005 562.222 509 559.168V11.4219C509.032 8.38502 510.248 5.48306 512.386 3.34502C514.523 1.20698 517.41 0.00514245 520.42 0H906.62C909.625 0.0105027 912.504 1.21534 914.634 3.35337C916.764 5.49139 917.974 8.39034 918 11.4219V559.168C918 562.217 916.802 565.141 914.669 567.301C912.536 569.461 909.642 570.68 906.62 570.69V570.69ZM520.42 0.403602C517.525 0.408936 514.751 1.5715 512.704 3.63667C510.657 5.70184 509.505 8.50129 509.5 11.4219V559.168C509.505 562.088 510.657 564.888 512.704 566.953C514.751 569.018 517.525 570.181 520.42 570.186H906.62C909.515 570.181 912.289 569.018 914.336 566.953C916.383 564.888 917.535 562.088 917.54 559.168V11.4219C917.535 8.50129 916.383 5.70184 914.336 3.63667C912.289 1.5715 909.515 0.408936 906.62 0.403602H520.42Z" fill="#EBEBEB"/>
<path d="M890.84 125.479H406.28V596.763H890.84V125.479Z" fill="#E0E0E0"/>
<path d="M890.84 134.036H414.06V588.529H890.84V134.036Z" fill="#F5F5F5"/>
<path d="M417.58 478.468V341.748H431.64V323.687L463.32 308.754V290.269H468.6V341.748H473.88V478.468H480.92V407.434H496.76V370.162H502.04V478.468H514.34V437.623H523.14V426.968H542.5V389.696H553.06V364.834H565.38V327.542H570.66V364.834H582.98V389.696H593.52V426.968H612.88V437.623H621.68V478.468H632.24V426.968H651.6V313.355H656.88V300.924H699.1V313.355H707.9V395.024H743.1V403.883H755.4V409.21H743.1V441.175H780.04V334.645H787.08V313.355H804.68V231.687H809.96V313.355H822.28V334.645H890.84V588.53H414.06V478.468H417.58Z" fill="#E6E6E6"/>
<path d="M854.2 340.215H849.22V345.239H854.2V340.215Z" fill="#F0F0F0"/>
<path d="M854.2 348.65H849.22V353.675H854.2V348.65Z" fill="#F0F0F0"/>
<path d="M854.2 382.391H849.22V387.416H854.2V382.391Z" fill="#F0F0F0"/>
<path d="M854.2 390.806H849.22V395.831H854.2V390.806Z" fill="#F0F0F0"/>
<path d="M854.2 399.241H849.22V404.266H854.2V399.241Z" fill="#F0F0F0"/>
<path d="M854.2 424.547H849.22V429.572H854.2V424.547Z" fill="#F0F0F0"/>
<path d="M854.2 432.982H849.22V438.007H854.2V432.982Z" fill="#F0F0F0"/>
<path d="M846.28 373.956H841.3V378.98H846.28V373.956Z" fill="#F0F0F0"/>
<path d="M846.28 382.391H841.3V387.416H846.28V382.391Z" fill="#F0F0F0"/>
<path d="M846.28 390.806H841.3V395.831H846.28V390.806Z" fill="#F0F0F0"/>
<path d="M846.28 399.241H841.3V404.266H846.28V399.241Z" fill="#F0F0F0"/>
<path d="M846.28 407.676H841.3V412.701H846.28V407.676Z" fill="#F0F0F0"/>
<path d="M846.28 424.547H841.3V429.572H846.28V424.547Z" fill="#F0F0F0"/>
<path d="M846.28 432.982H841.3V438.007H846.28V432.982Z" fill="#F0F0F0"/>
<path d="M838.36 340.215H833.38V345.239H838.36V340.215Z" fill="#F0F0F0"/>
<path d="M838.36 348.65H833.38V353.675H838.36V348.65Z" fill="#F0F0F0"/>
<path d="M838.36 357.085H833.38V362.11H838.36V357.085Z" fill="#F0F0F0"/>
<path d="M838.36 365.52H833.38V370.545H838.36V365.52Z" fill="#F0F0F0"/>
<path d="M838.36 373.956H833.38V378.98H838.36V373.956Z" fill="#F0F0F0"/>
<path d="M838.36 382.391H833.38V387.416H838.36V382.391Z" fill="#F0F0F0"/>
<path d="M838.36 390.806H833.38V395.831H838.36V390.806Z" fill="#F0F0F0"/>
<path d="M838.36 399.241H833.38V404.266H838.36V399.241Z" fill="#F0F0F0"/>
<path d="M838.36 407.676H833.38V412.701H838.36V407.676Z" fill="#F0F0F0"/>
<path d="M838.36 416.112H833.38V421.136H838.36V416.112Z" fill="#F0F0F0"/>
<path d="M838.36 432.982H833.38V438.007H838.36V432.982Z" fill="#F0F0F0"/>
<path d="M830.44 340.215H825.46V345.239H830.44V340.215Z" fill="#F0F0F0"/>
<path d="M830.44 348.65H825.46V353.675H830.44V348.65Z" fill="#F0F0F0"/>
<path d="M830.44 357.085H825.46V362.11H830.44V357.085Z" fill="#F0F0F0"/>
<path d="M830.44 365.52H825.46V370.545H830.44V365.52Z" fill="#F0F0F0"/>
<path d="M830.44 373.956H825.46V378.98H830.44V373.956Z" fill="#F0F0F0"/>
<path d="M830.44 382.391H825.46V387.416H830.44V382.391Z" fill="#F0F0F0"/>
<path d="M830.44 390.806H825.46V395.831H830.44V390.806Z" fill="#F0F0F0"/>
<path d="M830.44 466.723H825.46V471.748H830.44V466.723Z" fill="#F0F0F0"/>
<path d="M822.52 340.215H817.54V345.239H822.52V340.215Z" fill="#F0F0F0"/>
<path d="M822.52 348.65H817.54V353.675H822.52V348.65Z" fill="#F0F0F0"/>
<path d="M822.52 357.085H817.54V362.11H822.52V357.085Z" fill="#F0F0F0"/>
<path d="M822.52 365.52H817.54V370.545H822.52V365.52Z" fill="#F0F0F0"/>
<path d="M822.52 373.956H817.54V378.98H822.52V373.956Z" fill="#F0F0F0"/>
<path d="M822.52 382.391H817.54V387.416H822.52V382.391Z" fill="#F0F0F0"/>
<path d="M822.52 390.806H817.54V395.831H822.52V390.806Z" fill="#F0F0F0"/>
<path d="M822.52 399.241H817.54V404.266H822.52V399.241Z" fill="#F0F0F0"/>
<path d="M822.52 449.853H817.54V454.877H822.52V449.853Z" fill="#F0F0F0"/>
<path d="M822.52 458.288H817.54V463.313H822.52V458.288Z" fill="#F0F0F0"/>
<path d="M822.52 466.723H817.54V471.748H822.52V466.723Z" fill="#F0F0F0"/>
<path d="M822.52 475.138H817.54V480.163H822.52V475.138Z" fill="#F0F0F0"/>
<path d="M822.52 508.879H817.54V513.904H822.52V508.879Z" fill="#F0F0F0"/>
<path d="M814.6 340.215H809.62V345.239H814.6V340.215Z" fill="#F0F0F0"/>
<path d="M814.6 348.65H809.62V353.675H814.6V348.65Z" fill="#F0F0F0"/>
<path d="M814.6 357.085H809.62V362.11H814.6V357.085Z" fill="#F0F0F0"/>
<path d="M814.6 365.52H809.62V370.545H814.6V365.52Z" fill="#F0F0F0"/>
<path d="M814.6 373.956H809.62V378.98H814.6V373.956Z" fill="#F0F0F0"/>
<path d="M814.6 382.391H809.62V387.416H814.6V382.391Z" fill="#F0F0F0"/>
<path d="M814.6 390.806H809.62V395.831H814.6V390.806Z" fill="#F0F0F0"/>
<path d="M814.6 399.241H809.62V404.266H814.6V399.241Z" fill="#F0F0F0"/>
<path d="M814.6 407.676H809.62V412.701H814.6V407.676Z" fill="#F0F0F0"/>
<path d="M814.6 416.112H809.62V421.136H814.6V416.112Z" fill="#F0F0F0"/>
<path d="M814.6 441.417H809.62V446.442H814.6V441.417Z" fill="#F0F0F0"/>
<path d="M814.6 449.853H809.62V454.877H814.6V449.853Z" fill="#F0F0F0"/>
<path d="M814.6 458.288H809.62V463.313H814.6V458.288Z" fill="#F0F0F0"/>
<path d="M814.6 466.723H809.62V471.748H814.6V466.723Z" fill="#F0F0F0"/>
<path d="M814.6 475.138H809.62V480.163H814.6V475.138Z" fill="#F0F0F0"/>
<path d="M814.6 508.879H809.62V513.904H814.6V508.879Z" fill="#F0F0F0"/>
<path d="M806.68 340.215H801.7V345.239H806.68V340.215Z" fill="#F0F0F0"/>
<path d="M806.68 348.65H801.7V353.675H806.68V348.65Z" fill="#F0F0F0"/>
<path d="M806.68 357.085H801.7V362.11H806.68V357.085Z" fill="#F0F0F0"/>
<path d="M806.68 365.52H801.7V370.545H806.68V365.52Z" fill="#F0F0F0"/>
<path d="M806.68 373.956H801.7V378.98H806.68V373.956Z" fill="#F0F0F0"/>
<path d="M806.68 382.391H801.7V387.416H806.68V382.391Z" fill="#F0F0F0"/>
<path d="M806.68 390.806H801.7V395.831H806.68V390.806Z" fill="#F0F0F0"/>
<path d="M806.68 399.241H801.7V404.266H806.68V399.241Z" fill="#F0F0F0"/>
<path d="M806.68 407.676H801.7V412.701H806.68V407.676Z" fill="#F0F0F0"/>
<path d="M806.68 416.112H801.7V421.136H806.68V416.112Z" fill="#F0F0F0"/>
<path d="M806.68 424.547H801.7V429.572H806.68V424.547Z" fill="#F0F0F0"/>
<path d="M806.68 432.982H801.7V438.007H806.68V432.982Z" fill="#F0F0F0"/>
<path d="M806.68 441.417H801.7V446.442H806.68V441.417Z" fill="#F0F0F0"/>
<path d="M806.68 449.853H801.7V454.877H806.68V449.853Z" fill="#F0F0F0"/>
<path d="M806.68 458.288H801.7V463.313H806.68V458.288Z" fill="#F0F0F0"/>
<path d="M806.68 466.723H801.7V471.748H806.68V466.723Z" fill="#F0F0F0"/>
<path d="M806.68 475.138H801.7V480.163H806.68V475.138Z" fill="#F0F0F0"/>
<path d="M806.68 483.573H801.7V488.598H806.68V483.573Z" fill="#F0F0F0"/>
<path d="M798.76 340.215H793.78V345.239H798.76V340.215Z" fill="#F0F0F0"/>
<path d="M798.76 348.65H793.78V353.675H798.76V348.65Z" fill="#F0F0F0"/>
<path d="M798.76 357.085H793.78V362.11H798.76V357.085Z" fill="#F0F0F0"/>
<path d="M798.76 365.52H793.78V370.545H798.76V365.52Z" fill="#F0F0F0"/>
<path d="M798.76 373.956H793.78V378.98H798.76V373.956Z" fill="#F0F0F0"/>
<path d="M798.76 382.391H793.78V387.416H798.76V382.391Z" fill="#F0F0F0"/>
<path d="M798.76 390.806H793.78V395.831H798.76V390.806Z" fill="#F0F0F0"/>
<path d="M798.76 399.241H793.78V404.266H798.76V399.241Z" fill="#F0F0F0"/>
<path d="M798.76 407.676H793.78V412.701H798.76V407.676Z" fill="#F0F0F0"/>
<path d="M798.76 416.112H793.78V421.136H798.76V416.112Z" fill="#F0F0F0"/>
<path d="M798.76 441.417H793.78V446.442H798.76V441.417Z" fill="#F0F0F0"/>
<path d="M798.76 449.853H793.78V454.877H798.76V449.853Z" fill="#F0F0F0"/>
<path d="M798.76 458.288H793.78V463.313H798.76V458.288Z" fill="#F0F0F0"/>
<path d="M798.76 466.723H793.78V471.748H798.76V466.723Z" fill="#F0F0F0"/>
<path d="M790.86 340.215H785.88V345.239H790.86V340.215Z" fill="#F0F0F0"/>
<path d="M790.86 348.65H785.88V353.675H790.86V348.65Z" fill="#F0F0F0"/>
<path d="M790.86 357.085H785.88V362.11H790.86V357.085Z" fill="#F0F0F0"/>
<path d="M790.86 365.52H785.88V370.545H790.86V365.52Z" fill="#F0F0F0"/>
<path d="M790.86 373.956H785.88V378.98H790.86V373.956Z" fill="#F0F0F0"/>
<path d="M790.86 382.391H785.88V387.416H790.86V382.391Z" fill="#F0F0F0"/>
<path d="M790.86 390.806H785.88V395.831H790.86V390.806Z" fill="#F0F0F0"/>
<path d="M790.86 399.241H785.88V404.266H790.86V399.241Z" fill="#F0F0F0"/>
<path d="M790.86 407.676H785.88V412.701H790.86V407.676Z" fill="#F0F0F0"/>
<path d="M790.86 416.112H785.88V421.136H790.86V416.112Z" fill="#F0F0F0"/>
<path d="M790.86 441.417H785.88V446.442H790.86V441.417Z" fill="#F0F0F0"/>
<path d="M790.86 449.853H785.88V454.877H790.86V449.853Z" fill="#F0F0F0"/>
<path d="M790.86 458.288H785.88V463.313H790.86V458.288Z" fill="#F0F0F0"/>
<path d="M701.7 318.319H696.72V323.344H701.7V318.319Z" fill="#F0F0F0"/>
<path d="M701.7 326.755H696.72V331.779H701.7V326.755Z" fill="#F0F0F0"/>
<path d="M701.7 335.19H696.72V340.215H701.7V335.19Z" fill="#F0F0F0"/>
<path d="M701.7 343.625H696.72V348.65H701.7V343.625Z" fill="#F0F0F0"/>
<path d="M701.7 352.06H696.72V357.085H701.7V352.06Z" fill="#F0F0F0"/>
<path d="M701.7 360.496H696.72V365.52H701.7V360.496Z" fill="#F0F0F0"/>
<path d="M701.7 368.911H696.72V373.935H701.7V368.911Z" fill="#F0F0F0"/>
<path d="M701.7 377.346H696.72V382.371H701.7V377.346Z" fill="#F0F0F0"/>
<path d="M701.7 402.652H696.72V407.676H701.7V402.652Z" fill="#F0F0F0"/>
<path d="M701.7 411.087H696.72V416.112H701.7V411.087Z" fill="#F0F0F0"/>
<path d="M693.78 318.319H688.8V323.344H693.78V318.319Z" fill="#F0F0F0"/>
<path d="M693.78 326.755H688.8V331.779H693.78V326.755Z" fill="#F0F0F0"/>
<path d="M693.78 335.19H688.8V340.215H693.78V335.19Z" fill="#F0F0F0"/>
<path d="M693.78 343.625H688.8V348.65H693.78V343.625Z" fill="#F0F0F0"/>
<path d="M693.78 352.06H688.8V357.085H693.78V352.06Z" fill="#F0F0F0"/>
<path d="M693.78 360.496H688.8V365.52H693.78V360.496Z" fill="#F0F0F0"/>
<path d="M693.78 368.911H688.8V373.935H693.78V368.911Z" fill="#F0F0F0"/>
<path d="M693.78 377.346H688.8V382.371H693.78V377.346Z" fill="#F0F0F0"/>
<path d="M693.78 411.087H688.8V416.112H693.78V411.087Z" fill="#F0F0F0"/>
<path d="M685.86 318.319H680.88V323.344H685.86V318.319Z" fill="#F0F0F0"/>
<path d="M685.86 326.755H680.88V331.779H685.86V326.755Z" fill="#F0F0F0"/>
<path d="M685.86 335.19H680.88V340.215H685.86V335.19Z" fill="#F0F0F0"/>
<path d="M685.86 343.625H680.88V348.65H685.86V343.625Z" fill="#F0F0F0"/>
<path d="M685.86 352.06H680.88V357.085H685.86V352.06Z" fill="#F0F0F0"/>
<path d="M685.86 360.496H680.88V365.52H685.86V360.496Z" fill="#F0F0F0"/>
<path d="M685.86 368.911H680.88V373.935H685.86V368.911Z" fill="#F0F0F0"/>
<path d="M685.86 377.346H680.88V382.371H685.86V377.346Z" fill="#F0F0F0"/>
<path d="M677.94 318.319H672.96V323.344H677.94V318.319Z" fill="#F0F0F0"/>
<path d="M677.94 326.755H672.96V331.779H677.94V326.755Z" fill="#F0F0F0"/>
<path d="M677.94 335.19H672.96V340.215H677.94V335.19Z" fill="#F0F0F0"/>
<path d="M677.94 343.625H672.96V348.65H677.94V343.625Z" fill="#F0F0F0"/>
<path d="M677.94 352.06H672.96V357.085H677.94V352.06Z" fill="#F0F0F0"/>
<path d="M677.94 360.496H672.96V365.52H677.94V360.496Z" fill="#F0F0F0"/>
<path d="M677.94 377.346H672.96V382.371H677.94V377.346Z" fill="#F0F0F0"/>
<path d="M677.94 385.781H672.96V390.806H677.94V385.781Z" fill="#F0F0F0"/>
<path d="M677.94 411.087H672.96V416.112H677.94V411.087Z" fill="#F0F0F0"/>
<path d="M677.94 419.522H672.96V424.547H677.94V419.522Z" fill="#F0F0F0"/>
<path d="M677.94 427.957H672.96V432.982H677.94V427.957Z" fill="#F0F0F0"/>
<path d="M677.94 436.392H672.96V441.417H677.94V436.392Z" fill="#F0F0F0"/>
<path d="M677.94 444.828H672.96V449.853H677.94V444.828Z" fill="#F0F0F0"/>
<path d="M677.94 453.243H672.96V458.268H677.94V453.243Z" fill="#F0F0F0"/>
<path d="M677.94 461.678H672.96V466.703H677.94V461.678Z" fill="#F0F0F0"/>
<path d="M670.02 318.319H665.04V323.344H670.02V318.319Z" fill="#F0F0F0"/>
<path d="M670.02 326.755H665.04V331.779H670.02V326.755Z" fill="#F0F0F0"/>
<path d="M670.02 335.19H665.04V340.215H670.02V335.19Z" fill="#F0F0F0"/>
<path d="M670.02 343.625H665.04V348.65H670.02V343.625Z" fill="#F0F0F0"/>
<path d="M670.02 352.06H665.04V357.085H670.02V352.06Z" fill="#F0F0F0"/>
<path d="M670.02 360.496H665.04V365.52H670.02V360.496Z" fill="#F0F0F0"/>
<path d="M670.02 385.781H665.04V390.806H670.02V385.781Z" fill="#F0F0F0"/>
<path d="M670.02 394.216H665.04V399.241H670.02V394.216Z" fill="#F0F0F0"/>
<path d="M670.02 402.652H665.04V407.676H670.02V402.652Z" fill="#F0F0F0"/>
<path d="M670.02 411.087H665.04V416.112H670.02V411.087Z" fill="#F0F0F0"/>
<path d="M670.02 419.522H665.04V424.547H670.02V419.522Z" fill="#F0F0F0"/>
<path d="M670.02 427.957H665.04V432.982H670.02V427.957Z" fill="#F0F0F0"/>
<path d="M670.02 436.392H665.04V441.417H670.02V436.392Z" fill="#F0F0F0"/>
<path d="M670.02 444.828H665.04V449.853H670.02V444.828Z" fill="#F0F0F0"/>
<path d="M670.02 453.243H665.04V458.268H670.02V453.243Z" fill="#F0F0F0"/>
<path d="M670.02 461.678H665.04V466.703H670.02V461.678Z" fill="#F0F0F0"/>
<path d="M670.02 470.113H665.04V475.138H670.02V470.113Z" fill="#F0F0F0"/>
<path d="M670.02 486.984H665.04V492.009H670.02V486.984Z" fill="#F0F0F0"/>
<path d="M662.1 318.319H657.12V323.344H662.1V318.319Z" fill="#F0F0F0"/>
<path d="M662.1 326.755H657.12V331.779H662.1V326.755Z" fill="#F0F0F0"/>
<path d="M662.1 335.19H657.12V340.215H662.1V335.19Z" fill="#F0F0F0"/>
<path d="M662.1 343.625H657.12V348.65H662.1V343.625Z" fill="#F0F0F0"/>
<path d="M662.1 352.06H657.12V357.085H662.1V352.06Z" fill="#F0F0F0"/>
<path d="M662.1 360.496H657.12V365.52H662.1V360.496Z" fill="#F0F0F0"/>
<path d="M662.1 385.781H657.12V390.806H662.1V385.781Z" fill="#F0F0F0"/>
<path d="M662.1 394.216H657.12V399.241H662.1V394.216Z" fill="#F0F0F0"/>
<path d="M662.1 402.652H657.12V407.676H662.1V402.652Z" fill="#F0F0F0"/>
<path d="M662.1 411.087H657.12V416.112H662.1V411.087Z" fill="#F0F0F0"/>
<path d="M662.1 436.392H657.12V441.417H662.1V436.392Z" fill="#F0F0F0"/>
<path d="M662.1 444.828H657.12V449.853H662.1V444.828Z" fill="#F0F0F0"/>
<path d="M662.1 453.243H657.12V458.268H662.1V453.243Z" fill="#F0F0F0"/>
<path d="M662.1 461.678H657.12V466.703H662.1V461.678Z" fill="#F0F0F0"/>
<path d="M662.1 470.113H657.12V475.138H662.1V470.113Z" fill="#F0F0F0"/>
<path d="M662.1 486.984H657.12V492.009H662.1V486.984Z" fill="#F0F0F0"/>
<path d="M662.1 495.419H657.12V500.444H662.1V495.419Z" fill="#F0F0F0"/>
<path d="M590.26 396.739H585.28V401.764H590.26V396.739Z" fill="#F0F0F0"/>
<path d="M590.26 405.174H585.28V410.199H590.26V405.174Z" fill="#F0F0F0"/>
<path d="M590.26 413.609H585.28V418.634H590.26V413.609Z" fill="#F0F0F0"/>
<path d="M590.26 422.024H585.28V427.049H590.26V422.024Z" fill="#F0F0F0"/>
<path d="M590.26 430.46H585.28V435.484H590.26V430.46Z" fill="#F0F0F0"/>
<path d="M590.26 438.895H585.28V443.92H590.26V438.895Z" fill="#F0F0F0"/>
<path d="M590.26 447.33H585.28V452.355H590.26V447.33Z" fill="#F0F0F0"/>
<path d="M590.26 472.636H585.28V477.661H590.26V472.636Z" fill="#F0F0F0"/>
<path d="M590.26 481.071H585.28V486.096H590.26V481.071Z" fill="#F0F0F0"/>
<path d="M590.26 489.506H585.28V494.531H590.26V489.506Z" fill="#F0F0F0"/>
<path d="M582.34 396.739H577.36V401.764H582.34V396.739Z" fill="#F0F0F0"/>
<path d="M582.34 405.174H577.36V410.199H582.34V405.174Z" fill="#F0F0F0"/>
<path d="M582.34 413.609H577.36V418.634H582.34V413.609Z" fill="#F0F0F0"/>
<path d="M582.34 422.024H577.36V427.049H582.34V422.024Z" fill="#F0F0F0"/>
<path d="M582.34 430.46H577.36V435.484H582.34V430.46Z" fill="#F0F0F0"/>
<path d="M582.34 438.895H577.36V443.92H582.34V438.895Z" fill="#F0F0F0"/>
<path d="M582.34 447.33H577.36V452.355H582.34V447.33Z" fill="#F0F0F0"/>
<path d="M574.42 396.739H569.44V401.764H574.42V396.739Z" fill="#F0F0F0"/>
<path d="M574.42 405.174H569.44V410.199H574.42V405.174Z" fill="#F0F0F0"/>
<path d="M574.42 413.609H569.44V418.634H574.42V413.609Z" fill="#F0F0F0"/>
<path d="M574.42 422.024H569.44V427.049H574.42V422.024Z" fill="#F0F0F0"/>
<path d="M574.42 430.46H569.44V435.484H574.42V430.46Z" fill="#F0F0F0"/>
<path d="M574.42 438.895H569.44V443.92H574.42V438.895Z" fill="#F0F0F0"/>
<path d="M574.42 447.33H569.44V452.355H574.42V447.33Z" fill="#F0F0F0"/>
<path d="M566.5 396.739H561.52V401.764H566.5V396.739Z" fill="#F0F0F0"/>
<path d="M566.5 405.174H561.52V410.199H566.5V405.174Z" fill="#F0F0F0"/>
<path d="M566.5 413.609H561.52V418.634H566.5V413.609Z" fill="#F0F0F0"/>
<path d="M566.5 422.024H561.52V427.049H566.5V422.024Z" fill="#F0F0F0"/>
<path d="M566.5 430.46H561.52V435.484H566.5V430.46Z" fill="#F0F0F0"/>
<path d="M566.5 438.895H561.52V443.92H566.5V438.895Z" fill="#F0F0F0"/>
<path d="M566.5 447.33H561.52V452.355H566.5V447.33Z" fill="#F0F0F0"/>
<path d="M566.5 455.765H561.52V460.79H566.5V455.765Z" fill="#F0F0F0"/>
<path d="M566.5 464.201H561.52V469.225H566.5V464.201Z" fill="#F0F0F0"/>
<path d="M566.5 472.636H561.52V477.661H566.5V472.636Z" fill="#F0F0F0"/>
<path d="M566.5 481.071H561.52V486.096H566.5V481.071Z" fill="#F0F0F0"/>
<path d="M558.58 396.739H553.6V401.764H558.58V396.739Z" fill="#F0F0F0"/>
<path d="M558.58 405.174H553.6V410.199H558.58V405.174Z" fill="#F0F0F0"/>
<path d="M558.58 413.609H553.6V418.634H558.58V413.609Z" fill="#F0F0F0"/>
<path d="M558.58 422.024H553.6V427.049H558.58V422.024Z" fill="#F0F0F0"/>
<path d="M558.58 430.46H553.6V435.484H558.58V430.46Z" fill="#F0F0F0"/>
<path d="M558.58 438.895H553.6V443.92H558.58V438.895Z" fill="#F0F0F0"/>
<path d="M558.58 447.33H553.6V452.355H558.58V447.33Z" fill="#F0F0F0"/>
<path d="M558.58 455.765H553.6V460.79H558.58V455.765Z" fill="#F0F0F0"/>
<path d="M558.58 464.201H553.6V469.225H558.58V464.201Z" fill="#F0F0F0"/>
<path d="M558.58 472.636H553.6V477.661H558.58V472.636Z" fill="#F0F0F0"/>
<path d="M558.58 481.071H553.6V486.096H558.58V481.071Z" fill="#F0F0F0"/>
<path d="M558.58 489.506H553.6V494.531H558.58V489.506Z" fill="#F0F0F0"/>
<path d="M558.58 514.792H553.6V519.817H558.58V514.792Z" fill="#F0F0F0"/>
<path d="M558.58 523.227H553.6V528.252H558.58V523.227Z" fill="#F0F0F0"/>
<path d="M550.66 396.739H545.68V401.764H550.66V396.739Z" fill="#F0F0F0"/>
<path d="M550.66 405.174H545.68V410.199H550.66V405.174Z" fill="#F0F0F0"/>
<path d="M550.66 413.609H545.68V418.634H550.66V413.609Z" fill="#F0F0F0"/>
<path d="M550.66 438.895H545.68V443.92H550.66V438.895Z" fill="#F0F0F0"/>
<path d="M550.66 447.33H545.68V452.355H550.66V447.33Z" fill="#F0F0F0"/>
<path d="M550.66 455.765H545.68V460.79H550.66V455.765Z" fill="#F0F0F0"/>
<path d="M550.66 464.201H545.68V469.225H550.66V464.201Z" fill="#F0F0F0"/>
<path d="M550.66 472.636H545.68V477.661H550.66V472.636Z" fill="#F0F0F0"/>
<path d="M550.66 481.071H545.68V486.096H550.66V481.071Z" fill="#F0F0F0"/>
<path d="M550.66 489.506H545.68V494.531H550.66V489.506Z" fill="#F0F0F0"/>
<path d="M550.66 514.792H545.68V519.817H550.66V514.792Z" fill="#F0F0F0"/>
<path d="M550.66 523.227H545.68V528.252H550.66V523.227Z" fill="#F0F0F0"/>
<path d="M550.66 531.662H545.68V536.687H550.66V531.662Z" fill="#F0F0F0"/>
<path d="M467.68 346.127H462.7V351.152H467.68V346.127Z" fill="#F0F0F0"/>
<path d="M467.68 354.563H462.7V359.587H467.68V354.563Z" fill="#F0F0F0"/>
<path d="M467.68 362.998H462.7V368.023H467.68V362.998Z" fill="#F0F0F0"/>
<path d="M467.68 371.433H462.7V376.458H467.68V371.433Z" fill="#F0F0F0"/>
<path d="M467.68 379.868H462.7V384.893H467.68V379.868Z" fill="#F0F0F0"/>
<path d="M467.68 388.304H462.7V393.328H467.68V388.304Z" fill="#F0F0F0"/>
<path d="M467.68 396.739H462.7V401.764H467.68V396.739Z" fill="#F0F0F0"/>
<path d="M467.68 405.174H462.7V410.199H467.68V405.174Z" fill="#F0F0F0"/>
<path d="M467.68 413.609H462.7V418.634H467.68V413.609Z" fill="#F0F0F0"/>
<path d="M467.68 422.024H462.7V427.049H467.68V422.024Z" fill="#F0F0F0"/>
<path d="M467.68 430.46H462.7V435.484H467.68V430.46Z" fill="#F0F0F0"/>
<path d="M467.68 438.895H462.7V443.92H467.68V438.895Z" fill="#F0F0F0"/>
<path d="M467.68 447.33H462.7V452.355H467.68V447.33Z" fill="#F0F0F0"/>
<path d="M467.68 455.765H462.7V460.79H467.68V455.765Z" fill="#F0F0F0"/>
<path d="M467.68 464.201H462.7V469.225H467.68V464.201Z" fill="#F0F0F0"/>
<path d="M467.68 472.636H462.7V477.661H467.68V472.636Z" fill="#F0F0F0"/>
<path d="M467.68 481.071H462.7V486.096H467.68V481.071Z" fill="#F0F0F0"/>
<path d="M467.68 489.506H462.7V494.531H467.68V489.506Z" fill="#F0F0F0"/>
<path d="M467.68 497.942H462.7V502.966H467.68V497.942Z" fill="#F0F0F0"/>
<path d="M467.68 506.357H462.7V511.381H467.68V506.357Z" fill="#F0F0F0"/>
<path d="M467.68 514.792H462.7V519.817H467.68V514.792Z" fill="#F0F0F0"/>
<path d="M467.68 523.227H462.7V528.252H467.68V523.227Z" fill="#F0F0F0"/>
<path d="M467.68 531.662H462.7V536.687H467.68V531.662Z" fill="#F0F0F0"/>
<path d="M459.76 346.127H454.78V351.152H459.76V346.127Z" fill="#F0F0F0"/>
<path d="M459.76 354.563H454.78V359.587H459.76V354.563Z" fill="#F0F0F0"/>
<path d="M459.76 362.998H454.78V368.023H459.76V362.998Z" fill="#F0F0F0"/>
<path d="M459.76 371.433H454.78V376.458H459.76V371.433Z" fill="#F0F0F0"/>
<path d="M459.76 379.868H454.78V384.893H459.76V379.868Z" fill="#F0F0F0"/>
<path d="M459.76 388.304H454.78V393.328H459.76V388.304Z" fill="#F0F0F0"/>
<path d="M459.76 396.739H454.78V401.764H459.76V396.739Z" fill="#F0F0F0"/>
<path d="M459.76 405.174H454.78V410.199H459.76V405.174Z" fill="#F0F0F0"/>
<path d="M459.76 413.609H454.78V418.634H459.76V413.609Z" fill="#F0F0F0"/>
<path d="M459.76 422.024H454.78V427.049H459.76V422.024Z" fill="#F0F0F0"/>
<path d="M459.76 430.46H454.78V435.484H459.76V430.46Z" fill="#F0F0F0"/>
<path d="M459.76 438.895H454.78V443.92H459.76V438.895Z" fill="#F0F0F0"/>
<path d="M459.76 447.33H454.78V452.355H459.76V447.33Z" fill="#F0F0F0"/>
<path d="M459.76 455.765H454.78V460.79H459.76V455.765Z" fill="#F0F0F0"/>
<path d="M459.76 464.201H454.78V469.225H459.76V464.201Z" fill="#F0F0F0"/>
<path d="M459.76 472.636H454.78V477.661H459.76V472.636Z" fill="#F0F0F0"/>
<path d="M459.76 481.071H454.78V486.096H459.76V481.071Z" fill="#F0F0F0"/>
<path d="M459.76 489.506H454.78V494.531H459.76V489.506Z" fill="#F0F0F0"/>
<path d="M459.76 497.942H454.78V502.966H459.76V497.942Z" fill="#F0F0F0"/>
<path d="M451.84 346.127H446.86V351.152H451.84V346.127Z" fill="#F0F0F0"/>
<path d="M451.84 354.563H446.86V359.587H451.84V354.563Z" fill="#F0F0F0"/>
<path d="M451.84 362.998H446.86V368.023H451.84V362.998Z" fill="#F0F0F0"/>
<path d="M451.84 371.433H446.86V376.458H451.84V371.433Z" fill="#F0F0F0"/>
<path d="M451.84 379.868H446.86V384.893H451.84V379.868Z" fill="#F0F0F0"/>
<path d="M451.84 388.304H446.86V393.328H451.84V388.304Z" fill="#F0F0F0"/>
<path d="M451.84 396.739H446.86V401.764H451.84V396.739Z" fill="#F0F0F0"/>
<path d="M451.84 405.174H446.86V410.199H451.84V405.174Z" fill="#F0F0F0"/>
<path d="M451.84 413.609H446.86V418.634H451.84V413.609Z" fill="#F0F0F0"/>
<path d="M451.84 422.024H446.86V427.049H451.84V422.024Z" fill="#F0F0F0"/>
<path d="M451.84 430.46H446.86V435.484H451.84V430.46Z" fill="#F0F0F0"/>
<path d="M451.84 438.895H446.86V443.92H451.84V438.895Z" fill="#F0F0F0"/>
<path d="M451.84 447.33H446.86V452.355H451.84V447.33Z" fill="#F0F0F0"/>
<path d="M451.84 455.765H446.86V460.79H451.84V455.765Z" fill="#F0F0F0"/>
<path d="M451.84 464.201H446.86V469.225H451.84V464.201Z" fill="#F0F0F0"/>
<path d="M451.84 472.636H446.86V477.661H451.84V472.636Z" fill="#F0F0F0"/>
<path d="M451.84 481.071H446.86V486.096H451.84V481.071Z" fill="#F0F0F0"/>
<path d="M451.84 489.506H446.86V494.531H451.84V489.506Z" fill="#F0F0F0"/>
<path d="M451.84 497.942H446.86V502.966H451.84V497.942Z" fill="#F0F0F0"/>
<path d="M443.92 346.127H438.94V351.152H443.92V346.127Z" fill="#F0F0F0"/>
<path d="M443.92 354.563H438.94V359.587H443.92V354.563Z" fill="#F0F0F0"/>
<path d="M443.92 362.998H438.94V368.023H443.92V362.998Z" fill="#F0F0F0"/>
<path d="M443.92 371.433H438.94V376.458H443.92V371.433Z" fill="#F0F0F0"/>
<path d="M443.92 379.868H438.94V384.893H443.92V379.868Z" fill="#F0F0F0"/>
<path d="M443.92 388.304H438.94V393.328H443.92V388.304Z" fill="#F0F0F0"/>
<path d="M443.92 396.739H438.94V401.764H443.92V396.739Z" fill="#F0F0F0"/>
<path d="M443.92 405.174H438.94V410.199H443.92V405.174Z" fill="#F0F0F0"/>
<path d="M443.92 413.609H438.94V418.634H443.92V413.609Z" fill="#F0F0F0"/>
<path d="M443.92 422.024H438.94V427.049H443.92V422.024Z" fill="#F0F0F0"/>
<path d="M443.92 430.46H438.94V435.484H443.92V430.46Z" fill="#F0F0F0"/>
<path d="M443.92 438.895H438.94V443.92H443.92V438.895Z" fill="#F0F0F0"/>
<path d="M443.92 447.33H438.94V452.355H443.92V447.33Z" fill="#F0F0F0"/>
<path d="M443.92 455.765H438.94V460.79H443.92V455.765Z" fill="#F0F0F0"/>
<path d="M443.92 464.201H438.94V469.225H443.92V464.201Z" fill="#F0F0F0"/>
<path d="M436 346.127H431.02V351.152H436V346.127Z" fill="#F0F0F0"/>
<path d="M436 354.563H431.02V359.587H436V354.563Z" fill="#F0F0F0"/>
<path d="M436 362.998H431.02V368.023H436V362.998Z" fill="#F0F0F0"/>
<path d="M436 371.433H431.02V376.458H436V371.433Z" fill="#F0F0F0"/>
<path d="M436 379.868H431.02V384.893H436V379.868Z" fill="#F0F0F0"/>
<path d="M436 388.304H431.02V393.328H436V388.304Z" fill="#F0F0F0"/>
<path d="M436 396.739H431.02V401.764H436V396.739Z" fill="#F0F0F0"/>
<path d="M436 405.174H431.02V410.199H436V405.174Z" fill="#F0F0F0"/>
<path d="M436 413.609H431.02V418.634H436V413.609Z" fill="#F0F0F0"/>
<path d="M436 422.024H431.02V427.049H436V422.024Z" fill="#F0F0F0"/>
<path d="M436 430.46H431.02V435.484H436V430.46Z" fill="#F0F0F0"/>
<path d="M436 438.895H431.02V443.92H436V438.895Z" fill="#F0F0F0"/>
<path d="M436 447.33H431.02V452.355H436V447.33Z" fill="#F0F0F0"/>
<path d="M428.08 346.127H423.1V351.152H428.08V346.127Z" fill="#F0F0F0"/>
<path d="M428.08 354.563H423.1V359.587H428.08V354.563Z" fill="#F0F0F0"/>
<path d="M428.08 362.998H423.1V368.023H428.08V362.998Z" fill="#F0F0F0"/>
<path d="M428.08 371.433H423.1V376.458H428.08V371.433Z" fill="#F0F0F0"/>
<path d="M428.08 379.868H423.1V384.893H428.08V379.868Z" fill="#F0F0F0"/>
<path d="M428.08 388.304H423.1V393.328H428.08V388.304Z" fill="#F0F0F0"/>
<path d="M428.08 396.739H423.1V401.764H428.08V396.739Z" fill="#F0F0F0"/>
<path d="M428.08 405.174H423.1V410.199H428.08V405.174Z" fill="#F0F0F0"/>
<path d="M428.08 413.609H423.1V418.634H428.08V413.609Z" fill="#F0F0F0"/>
<path d="M428.08 422.024H423.1V427.049H428.08V422.024Z" fill="#F0F0F0"/>
<path d="M428.08 430.46H423.1V435.484H428.08V430.46Z" fill="#F0F0F0"/>
<path d="M428.08 438.895H423.1V443.92H428.08V438.895Z" fill="#F0F0F0"/>
<path d="M890.26 343.625H885.28V348.65H890.26V343.625Z" fill="#F0F0F0"/>
<path d="M890.26 352.06H885.28V357.085H890.26V352.06Z" fill="#F0F0F0"/>
<path d="M890.26 360.496H885.28V365.52H890.26V360.496Z" fill="#F0F0F0"/>
<path d="M890.26 368.911H885.28V373.935H890.26V368.911Z" fill="#F0F0F0"/>
<path d="M890.26 377.346H885.28V382.371H890.26V377.346Z" fill="#F0F0F0"/>
<path d="M890.26 385.781H885.28V390.806H890.26V385.781Z" fill="#F0F0F0"/>
<path d="M890.26 394.216H885.28V399.241H890.26V394.216Z" fill="#F0F0F0"/>
<path d="M890.26 402.652H885.28V407.676H890.26V402.652Z" fill="#F0F0F0"/>
<path d="M890.26 411.087H885.28V416.112H890.26V411.087Z" fill="#F0F0F0"/>
<path d="M890.26 419.522H885.28V424.547H890.26V419.522Z" fill="#F0F0F0"/>
<path d="M890.26 427.957H885.28V432.982H890.26V427.957Z" fill="#F0F0F0"/>
<path d="M890.26 436.392H885.28V441.417H890.26V436.392Z" fill="#F0F0F0"/>
<path d="M890.26 444.828H885.28V449.853H890.26V444.828Z" fill="#F0F0F0"/>
<path d="M890.26 453.243H885.28V458.268H890.26V453.243Z" fill="#F0F0F0"/>
<path d="M890.26 461.678H885.28V466.703H890.26V461.678Z" fill="#F0F0F0"/>
<path d="M890.26 470.113H885.28V475.138H890.26V470.113Z" fill="#F0F0F0"/>
<path d="M890.26 478.549H885.28V483.573H890.26V478.549Z" fill="#F0F0F0"/>
<path d="M890.26 495.419H885.28V500.444H890.26V495.419Z" fill="#F0F0F0"/>
<path d="M890.26 503.854H885.28V508.879H890.26V503.854Z" fill="#F0F0F0"/>
<path d="M890.26 512.289H885.28V517.314H890.26V512.289Z" fill="#F0F0F0"/>
<path d="M890.26 520.725H885.28V525.75H890.26V520.725Z" fill="#F0F0F0"/>
<path d="M890.26 529.14H885.28V534.165H890.26V529.14Z" fill="#F0F0F0"/>
<path d="M882.34 343.625H877.36V348.65H882.34V343.625Z" fill="#F0F0F0"/>
<path d="M882.34 352.06H877.36V357.085H882.34V352.06Z" fill="#F0F0F0"/>
<path d="M882.34 360.496H877.36V365.52H882.34V360.496Z" fill="#F0F0F0"/>
<path d="M882.34 368.911H877.36V373.935H882.34V368.911Z" fill="#F0F0F0"/>
<path d="M882.34 377.346H877.36V382.371H882.34V377.346Z" fill="#F0F0F0"/>
<path d="M882.34 385.781H877.36V390.806H882.34V385.781Z" fill="#F0F0F0"/>
<path d="M882.34 394.216H877.36V399.241H882.34V394.216Z" fill="#F0F0F0"/>
<path d="M882.34 402.652H877.36V407.676H882.34V402.652Z" fill="#F0F0F0"/>
<path d="M882.34 411.087H877.36V416.112H882.34V411.087Z" fill="#F0F0F0"/>
<path d="M882.34 419.522H877.36V424.547H882.34V419.522Z" fill="#F0F0F0"/>
<path d="M882.34 427.957H877.36V432.982H882.34V427.957Z" fill="#F0F0F0"/>
<path d="M882.34 436.392H877.36V441.417H882.34V436.392Z" fill="#F0F0F0"/>
<path d="M882.34 444.828H877.36V449.853H882.34V444.828Z" fill="#F0F0F0"/>
<path d="M882.34 453.243H877.36V458.268H882.34V453.243Z" fill="#F0F0F0"/>
<path d="M882.34 461.678H877.36V466.703H882.34V461.678Z" fill="#F0F0F0"/>
<path d="M882.34 470.113H877.36V475.138H882.34V470.113Z" fill="#F0F0F0"/>
<path d="M882.34 520.725H877.36V525.75H882.34V520.725Z" fill="#F0F0F0"/>
<path d="M882.34 529.14H877.36V534.165H882.34V529.14Z" fill="#F0F0F0"/>
<path d="M874.44 343.625H869.46V348.65H874.44V343.625Z" fill="#F0F0F0"/>
<path d="M874.44 352.06H869.46V357.085H874.44V352.06Z" fill="#F0F0F0"/>
<path d="M874.44 360.496H869.46V365.52H874.44V360.496Z" fill="#F0F0F0"/>
<path d="M874.44 368.911H869.46V373.935H874.44V368.911Z" fill="#F0F0F0"/>
<path d="M874.44 377.346H869.46V382.371H874.44V377.346Z" fill="#F0F0F0"/>
<path d="M874.44 385.781H869.46V390.806H874.44V385.781Z" fill="#F0F0F0"/>
<path d="M874.44 394.216H869.46V399.241H874.44V394.216Z" fill="#F0F0F0"/>
<path d="M874.44 402.652H869.46V407.676H874.44V402.652Z" fill="#F0F0F0"/>
<path d="M874.44 411.087H869.46V416.112H874.44V411.087Z" fill="#F0F0F0"/>
<path d="M874.44 419.522H869.46V424.547H874.44V419.522Z" fill="#F0F0F0"/>
<path d="M874.44 427.957H869.46V432.982H874.44V427.957Z" fill="#F0F0F0"/>
<path d="M874.44 436.392H869.46V441.417H874.44V436.392Z" fill="#F0F0F0"/>
<path d="M874.44 444.828H869.46V449.853H874.44V444.828Z" fill="#F0F0F0"/>
<path d="M874.44 453.243H869.46V458.268H874.44V453.243Z" fill="#F0F0F0"/>
<path d="M874.44 461.678H869.46V466.703H874.44V461.678Z" fill="#F0F0F0"/>
<path d="M874.44 470.113H869.46V475.138H874.44V470.113Z" fill="#F0F0F0"/>
<path d="M874.44 486.984H869.46V492.009H874.44V486.984Z" fill="#F0F0F0"/>
<path d="M874.44 495.419H869.46V500.444H874.44V495.419Z" fill="#F0F0F0"/>
<path d="M874.44 503.854H869.46V508.879H874.44V503.854Z" fill="#F0F0F0"/>
<path d="M874.44 512.289H869.46V517.314H874.44V512.289Z" fill="#F0F0F0"/>
<path d="M874.44 529.14H869.46V534.165H874.44V529.14Z" fill="#F0F0F0"/>
<path d="M736.3 402.652H731.32V407.676H736.3V402.652Z" fill="#F0F0F0"/>
<path d="M736.3 411.087H731.32V416.112H736.3V411.087Z" fill="#F0F0F0"/>
<path d="M736.3 419.522H731.32V424.547H736.3V419.522Z" fill="#F0F0F0"/>
<path d="M736.3 427.957H731.32V432.982H736.3V427.957Z" fill="#F0F0F0"/>
<path d="M736.3 436.392H731.32V441.417H736.3V436.392Z" fill="#F0F0F0"/>
<path d="M736.3 444.828H731.32V449.853H736.3V444.828Z" fill="#F0F0F0"/>
<path d="M736.3 453.243H731.32V458.268H736.3V453.243Z" fill="#F0F0F0"/>
<path d="M736.3 461.678H731.32V466.703H736.3V461.678Z" fill="#F0F0F0"/>
<path d="M736.3 470.113H731.32V475.138H736.3V470.113Z" fill="#F0F0F0"/>
<path d="M736.3 478.549H731.32V483.573H736.3V478.549Z" fill="#F0F0F0"/>
<path d="M736.3 486.984H731.32V492.009H736.3V486.984Z" fill="#F0F0F0"/>
<path d="M736.3 495.419H731.32V500.444H736.3V495.419Z" fill="#F0F0F0"/>
<path d="M736.3 503.854H731.32V508.879H736.3V503.854Z" fill="#F0F0F0"/>
<path d="M736.3 520.725H731.32V525.75H736.3V520.725Z" fill="#F0F0F0"/>
<path d="M736.3 529.14H731.32V534.165H736.3V529.14Z" fill="#F0F0F0"/>
<path d="M736.3 537.575H731.32V542.6H736.3V537.575Z" fill="#F0F0F0"/>
<path d="M736.3 546.01H731.32V551.035H736.3V546.01Z" fill="#F0F0F0"/>
<path d="M736.3 562.881H731.32V567.906H736.3V562.881Z" fill="#F0F0F0"/>
<path d="M736.3 571.316H731.32V576.341H736.3V571.316Z" fill="#F0F0F0"/>
<path d="M736.3 579.751H731.32V584.776H736.3V579.751Z" fill="#F0F0F0"/>
<path d="M728.38 402.652H723.4V407.676H728.38V402.652Z" fill="#F0F0F0"/>
<path d="M728.38 411.087H723.4V416.112H728.38V411.087Z" fill="#F0F0F0"/>
<path d="M728.38 419.522H723.4V424.547H728.38V419.522Z" fill="#F0F0F0"/>
<path d="M728.38 427.957H723.4V432.982H728.38V427.957Z" fill="#F0F0F0"/>
<path d="M728.38 436.392H723.4V441.417H728.38V436.392Z" fill="#F0F0F0"/>
<path d="M728.38 444.828H723.4V449.853H728.38V444.828Z" fill="#F0F0F0"/>
<path d="M728.38 453.243H723.4V458.268H728.38V453.243Z" fill="#F0F0F0"/>
<path d="M728.38 461.678H723.4V466.703H728.38V461.678Z" fill="#F0F0F0"/>
<path d="M728.38 470.113H723.4V475.138H728.38V470.113Z" fill="#F0F0F0"/>
<path d="M728.38 478.549H723.4V483.573H728.38V478.549Z" fill="#F0F0F0"/>
<path d="M728.38 486.984H723.4V492.009H728.38V486.984Z" fill="#F0F0F0"/>
<path d="M728.38 495.419H723.4V500.444H728.38V495.419Z" fill="#F0F0F0"/>
<path d="M728.38 503.854H723.4V508.879H728.38V503.854Z" fill="#F0F0F0"/>
<path d="M728.38 529.14H723.4V534.165H728.38V529.14Z" fill="#F0F0F0"/>
<path d="M728.38 537.575H723.4V542.6H728.38V537.575Z" fill="#F0F0F0"/>
<path d="M728.38 554.445H723.4V559.47H728.38V554.445Z" fill="#F0F0F0"/>
<path d="M728.38 562.881H723.4V567.906H728.38V562.881Z" fill="#F0F0F0"/>
<path d="M728.38 571.316H723.4V576.341H728.38V571.316Z" fill="#F0F0F0"/>
<path d="M728.38 579.751H723.4V584.776H728.38V579.751Z" fill="#F0F0F0"/>
<path d="M720.46 402.652H715.48V407.676H720.46V402.652Z" fill="#F0F0F0"/>
<path d="M720.46 411.087H715.48V416.112H720.46V411.087Z" fill="#F0F0F0"/>
<path d="M720.46 419.522H715.48V424.547H720.46V419.522Z" fill="#F0F0F0"/>
<path d="M720.46 427.957H715.48V432.982H720.46V427.957Z" fill="#F0F0F0"/>
<path d="M720.46 436.392H715.48V441.417H720.46V436.392Z" fill="#F0F0F0"/>
<path d="M720.46 444.828H715.48V449.853H720.46V444.828Z" fill="#F0F0F0"/>
<path d="M720.46 453.243H715.48V458.268H720.46V453.243Z" fill="#F0F0F0"/>
<path d="M720.46 461.678H715.48V466.703H720.46V461.678Z" fill="#F0F0F0"/>
<path d="M720.46 470.113H715.48V475.138H720.46V470.113Z" fill="#F0F0F0"/>
<path d="M720.46 478.549H715.48V483.573H720.46V478.549Z" fill="#F0F0F0"/>
<path d="M720.46 486.984H715.48V492.009H720.46V486.984Z" fill="#F0F0F0"/>
<path d="M720.46 495.419H715.48V500.444H720.46V495.419Z" fill="#F0F0F0"/>
<path d="M720.46 503.854H715.48V508.879H720.46V503.854Z" fill="#F0F0F0"/>
<path d="M720.46 512.289H715.48V517.314H720.46V512.289Z" fill="#F0F0F0"/>
<path d="M720.46 529.14H715.48V534.165H720.46V529.14Z" fill="#F0F0F0"/>
<path d="M720.46 546.01H715.48V551.035H720.46V546.01Z" fill="#F0F0F0"/>
<path d="M720.46 554.445H715.48V559.47H720.46V554.445Z" fill="#F0F0F0"/>
<path d="M720.46 562.881H715.48V567.906H720.46V562.881Z" fill="#F0F0F0"/>
<path d="M720.46 571.316H715.48V576.341H720.46V571.316Z" fill="#F0F0F0"/>
<path d="M720.46 579.751H715.48V584.776H720.46V579.751Z" fill="#F0F0F0"/>
<path d="M768.56 450.74H763.58V455.765H768.56V450.74Z" fill="#F0F0F0"/>
<path d="M768.56 459.176H763.58V464.201H768.56V459.176Z" fill="#F0F0F0"/>
<path d="M768.56 467.611H763.58V472.636H768.56V467.611Z" fill="#F0F0F0"/>
<path d="M768.56 476.026H763.58V481.051H768.56V476.026Z" fill="#F0F0F0"/>
<path d="M768.56 484.461H763.58V489.486H768.56V484.461Z" fill="#F0F0F0"/>
<path d="M768.56 492.896H763.58V497.921H768.56V492.896Z" fill="#F0F0F0"/>
<path d="M768.56 518.202H763.58V523.227H768.56V518.202Z" fill="#F0F0F0"/>
<path d="M768.56 526.637H763.58V531.662H768.56V526.637Z" fill="#F0F0F0"/>
<path d="M768.56 535.073H763.58V540.098H768.56V535.073Z" fill="#F0F0F0"/>
<path d="M768.56 543.508H763.58V548.533H768.56V543.508Z" fill="#F0F0F0"/>
<path d="M768.56 551.943H763.58V556.968H768.56V551.943Z" fill="#F0F0F0"/>
<path d="M768.56 560.358H763.58V565.383H768.56V560.358Z" fill="#F0F0F0"/>
<path d="M768.56 568.793H763.58V573.818H768.56V568.793Z" fill="#F0F0F0"/>
<path d="M760.64 450.74H755.66V455.765H760.64V450.74Z" fill="#F0F0F0"/>
<path d="M760.64 459.176H755.66V464.201H760.64V459.176Z" fill="#F0F0F0"/>
<path d="M760.64 467.611H755.66V472.636H760.64V467.611Z" fill="#F0F0F0"/>
<path d="M760.64 476.026H755.66V481.051H760.64V476.026Z" fill="#F0F0F0"/>
<path d="M760.64 484.461H755.66V489.486H760.64V484.461Z" fill="#F0F0F0"/>
<path d="M760.64 492.896H755.66V497.921H760.64V492.896Z" fill="#F0F0F0"/>
<path d="M760.64 518.202H755.66V523.227H760.64V518.202Z" fill="#F0F0F0"/>
<path d="M760.64 526.637H755.66V531.662H760.64V526.637Z" fill="#F0F0F0"/>
<path d="M760.64 535.073H755.66V540.098H760.64V535.073Z" fill="#F0F0F0"/>
<path d="M760.64 543.508H755.66V548.533H760.64V543.508Z" fill="#F0F0F0"/>
<path d="M760.64 551.943H755.66V556.968H760.64V551.943Z" fill="#F0F0F0"/>
<path d="M760.64 560.358H755.66V565.383H760.64V560.358Z" fill="#F0F0F0"/>
<path d="M760.64 577.229H755.66V582.254H760.64V577.229Z" fill="#F0F0F0"/>
<path d="M497.58 413.609H492.6V418.634H497.58V413.609Z" fill="#F0F0F0"/>
<path d="M497.58 422.024H492.6V427.049H497.58V422.024Z" fill="#F0F0F0"/>
<path d="M497.58 430.46H492.6V435.484H497.58V430.46Z" fill="#F0F0F0"/>
<path d="M497.58 438.895H492.6V443.92H497.58V438.895Z" fill="#F0F0F0"/>
<path d="M497.58 447.33H492.6V452.355H497.58V447.33Z" fill="#F0F0F0"/>
<path d="M497.58 455.765H492.6V460.79H497.58V455.765Z" fill="#F0F0F0"/>
<path d="M497.58 464.201H492.6V469.225H497.58V464.201Z" fill="#F0F0F0"/>
<path d="M497.58 472.636H492.6V477.661H497.58V472.636Z" fill="#F0F0F0"/>
<path d="M497.58 481.071H492.6V486.096H497.58V481.071Z" fill="#F0F0F0"/>
<path d="M497.58 489.506H492.6V494.531H497.58V489.506Z" fill="#F0F0F0"/>
<path d="M497.58 497.942H492.6V502.966H497.58V497.942Z" fill="#F0F0F0"/>
<path d="M497.58 514.792H492.6V519.817H497.58V514.792Z" fill="#F0F0F0"/>
<path d="M497.58 523.227H492.6V528.252H497.58V523.227Z" fill="#F0F0F0"/>
<path d="M497.58 531.662H492.6V536.687H497.58V531.662Z" fill="#F0F0F0"/>
<path d="M497.58 540.098H492.6V545.122H497.58V540.098Z" fill="#F0F0F0"/>
<path d="M497.58 548.533H492.6V553.558H497.58V548.533Z" fill="#F0F0F0"/>
<path d="M497.58 556.968H492.6V561.993H497.58V556.968Z" fill="#F0F0F0"/>
<path d="M497.58 565.403H492.6V570.428H497.58V565.403Z" fill="#F0F0F0"/>
<path d="M497.58 573.838H492.6V578.863H497.58V573.838Z" fill="#F0F0F0"/>
<path d="M489.68 413.609H484.7V418.634H489.68V413.609Z" fill="#F0F0F0"/>
<path d="M489.68 422.024H484.7V427.049H489.68V422.024Z" fill="#F0F0F0"/>
<path d="M489.68 430.46H484.7V435.484H489.68V430.46Z" fill="#F0F0F0"/>
<path d="M489.68 438.895H484.7V443.92H489.68V438.895Z" fill="#F0F0F0"/>
<path d="M489.68 447.33H484.7V452.355H489.68V447.33Z" fill="#F0F0F0"/>
<path d="M489.68 455.765H484.7V460.79H489.68V455.765Z" fill="#F0F0F0"/>
<path d="M489.68 464.201H484.7V469.225H489.68V464.201Z" fill="#F0F0F0"/>
<path d="M489.68 472.636H484.7V477.661H489.68V472.636Z" fill="#F0F0F0"/>
<path d="M489.68 481.071H484.7V486.096H489.68V481.071Z" fill="#F0F0F0"/>
<path d="M489.68 489.506H484.7V494.531H489.68V489.506Z" fill="#F0F0F0"/>
<path d="M489.68 497.942H484.7V502.966H489.68V497.942Z" fill="#F0F0F0"/>
<path d="M489.68 506.357H484.7V511.381H489.68V506.357Z" fill="#F0F0F0"/>
<path d="M489.68 514.792H484.7V519.817H489.68V514.792Z" fill="#F0F0F0"/>
<path d="M489.68 523.227H484.7V528.252H489.68V523.227Z" fill="#F0F0F0"/>
<path d="M489.68 531.662H484.7V536.687H489.68V531.662Z" fill="#F0F0F0"/>
<path d="M489.68 540.098H484.7V545.122H489.68V540.098Z" fill="#F0F0F0"/>
<path d="M489.68 548.533H484.7V553.558H489.68V548.533Z" fill="#F0F0F0"/>
<path d="M489.68 556.968H484.7V561.993H489.68V556.968Z" fill="#F0F0F0"/>
<path d="M489.68 565.403H484.7V570.428H489.68V565.403Z" fill="#F0F0F0"/>
<path d="M489.68 573.838H484.7V578.863H489.68V573.838Z" fill="#F0F0F0"/>
<path d="M536.6 446.442H531.62V451.467H536.6V446.442Z" fill="#F0F0F0"/>
<path d="M536.6 454.877H531.62V459.902H536.6V454.877Z" fill="#F0F0F0"/>
<path d="M536.6 463.313H531.62V468.337H536.6V463.313Z" fill="#F0F0F0"/>
<path d="M536.6 471.748H531.62V476.773H536.6V471.748Z" fill="#F0F0F0"/>
<path d="M536.6 480.183H531.62V485.208H536.6V480.183Z" fill="#F0F0F0"/>
<path d="M536.6 488.618H531.62V493.643H536.6V488.618Z" fill="#F0F0F0"/>
<path d="M536.6 497.054H531.62V502.078H536.6V497.054Z" fill="#F0F0F0"/>
<path d="M536.6 505.469H531.62V510.493H536.6V505.469Z" fill="#F0F0F0"/>
<path d="M536.6 513.904H531.62V518.929H536.6V513.904Z" fill="#F0F0F0"/>
<path d="M536.6 522.339H531.62V527.364H536.6V522.339Z" fill="#F0F0F0"/>
<path d="M528.68 446.442H523.7V451.467H528.68V446.442Z" fill="#F0F0F0"/>
<path d="M528.68 454.877H523.7V459.902H528.68V454.877Z" fill="#F0F0F0"/>
<path d="M528.68 463.313H523.7V468.337H528.68V463.313Z" fill="#F0F0F0"/>
<path d="M528.68 471.748H523.7V476.773H528.68V471.748Z" fill="#F0F0F0"/>
<path d="M528.68 480.183H523.7V485.208H528.68V480.183Z" fill="#F0F0F0"/>
<path d="M528.68 488.618H523.7V493.643H528.68V488.618Z" fill="#F0F0F0"/>
<path d="M528.68 497.054H523.7V502.078H528.68V497.054Z" fill="#F0F0F0"/>
<path d="M528.68 505.469H523.7V510.493H528.68V505.469Z" fill="#F0F0F0"/>
<path d="M528.68 513.904H523.7V518.929H528.68V513.904Z" fill="#F0F0F0"/>
<path d="M575.78 126.408H567.42V596.763H575.78V126.408Z" fill="#E0E0E0"/>
<path d="M733.2 126.408H724.84V596.763H733.2V126.408Z" fill="#E0E0E0"/>
<path d="M890.6 126.408H882.24V596.763H890.6V126.408Z" fill="#E0E0E0"/>
<path d="M295.64 550.914H347.2C349.539 550.914 351.783 551.852 353.437 553.521C355.091 555.19 356.02 557.453 356.02 559.813V660.37H286.84V559.894C286.829 558.72 287.049 557.556 287.486 556.468C287.924 555.381 288.57 554.391 289.388 553.556C290.206 552.722 291.179 552.058 292.252 551.605C293.325 551.151 294.477 550.917 295.64 550.914Z" fill="#F0F0F0"/>
<path d="M356.02 565.807H286.84V573.657H356.02V565.807Z" fill="#E6E6E6"/>
<path d="M326.18 647.193H343.42C344.677 647.193 345.883 647.697 346.772 648.594C347.661 649.49 348.16 650.707 348.16 651.975V660.451H321.42V651.975C321.42 651.346 321.543 650.722 321.783 650.14C322.022 649.559 322.373 649.031 322.815 648.586C323.258 648.142 323.782 647.79 324.36 647.551C324.937 647.312 325.556 647.19 326.18 647.193V647.193Z" fill="#E0E0E0"/>
<path d="M348.24 660.451H329.08C328.263 660.451 327.48 660.124 326.902 659.541C326.324 658.958 326 658.167 326 657.343V657.343C326.005 656.522 326.332 655.737 326.909 655.159C327.486 654.58 328.267 654.256 329.08 654.256H348.24C349.053 654.256 349.834 654.58 350.411 655.159C350.988 655.737 351.315 656.522 351.32 657.343V657.343C351.32 658.167 350.995 658.958 350.418 659.541C349.84 660.124 349.057 660.451 348.24 660.451Z" fill="#E6E6E6"/>
<path d="M655.428 104.34C680.745 98.3108 696.424 72.715 690.449 47.1702C684.474 21.6253 659.106 5.80469 633.789 11.8338C608.472 17.863 592.793 43.4587 598.768 69.0036C604.743 94.5485 630.111 110.369 655.428 104.34Z" fill="#E0E0E0"/>
<path d="M651.015 97.9299C672.854 94.3531 687.684 73.5904 684.139 51.5551C680.594 29.5199 660.016 14.5564 638.178 18.1332C616.339 21.7101 601.509 42.4727 605.054 64.508C608.599 86.5432 629.176 101.507 651.015 97.9299Z" fill="#F0F0F0"/>
<path d="M646.5 30.3305V58.5825L665.04 47.988" fill="#F0F0F0"/>
<path d="M646.5 60.54C646.141 60.5399 645.789 60.4423 645.48 60.2575C645.181 60.0789 644.934 59.8249 644.762 59.5207C644.59 59.2164 644.5 58.8722 644.5 58.522V30.27C644.5 29.7348 644.711 29.2215 645.086 28.8431C645.461 28.4646 645.97 28.252 646.5 28.252C647.03 28.252 647.539 28.4646 647.914 28.8431C648.289 29.2215 648.5 29.7348 648.5 30.27V55.1116L664.06 46.2324C664.522 45.971 665.067 45.9049 665.577 46.0486C666.087 46.1923 666.52 46.5342 666.78 46.9992C667.041 47.4626 667.109 48.0112 666.971 48.5254C666.832 49.0395 666.497 49.4775 666.04 49.7437L647.48 60.3382C647.173 60.4812 646.838 60.5503 646.5 60.54V60.54Z" fill="#E0E0E0"/>
<path d="M193.86 521.936C190.26 515.882 184.34 521.148 184.34 521.148C185.18 509.686 174.74 501.856 174.74 501.856C174.74 501.856 186.88 501.856 188.56 490.172C190.24 478.488 184.34 483.916 178.78 483.836C173.22 483.755 167.4 500.141 174.78 509.363C182.16 518.586 180.14 534.326 163.2 549.461C159.149 553.286 156.11 558.073 154.36 563.385C155.64 549.481 156.36 529.886 152.36 516.81C145.48 494.612 158.6 488.558 162.36 477.499C166.12 466.44 152.36 456.996 152.36 456.996C152.36 456.996 165.38 450.942 159.02 444.182C152.66 437.422 139.54 438.269 139.54 447.209C139.54 456.149 148.44 459.559 148.44 459.559C148.44 459.559 158.6 470.234 158.6 475.703C158.6 481.172 148.44 493.219 148.44 493.219C148.44 493.219 153.1 482.988 143.78 482.564C134.46 482.141 131.5 494.511 135.32 500.06C139.14 505.61 145.48 500.928 145.48 500.928C145.878 507.406 146.848 513.836 148.38 520.139C149.34 523.348 148.9 535.88 148.1 548.916C146.331 544.21 143.504 539.982 139.84 536.566C122.9 521.431 120.94 505.691 128.28 496.468C135.62 487.246 129.8 470.86 124.28 470.941C118.76 471.021 112.78 465.573 114.48 477.257C116.18 488.941 128.32 488.961 128.32 488.961C128.32 488.961 117.86 496.791 118.7 508.253C118.7 508.253 112.7 503.047 109.18 509.04C102.76 519.716 117.66 526.335 120.16 521.148C120.16 521.148 151.74 543.71 144.16 576.179L145.92 578.823C145.7 581.446 145.56 583.02 145.56 583.02L148.02 581.951L150.84 586.128C150.741 590.848 150.982 595.569 151.56 600.254L159.1 588.994C151.48 556.524 183.1 533.963 183.1 533.963C185.4 539.25 200.28 532.611 193.86 521.936Z" fill="#E0E0E0"/>
<path opacity="0.2" d="M193.86 521.936C190.26 515.882 184.34 521.148 184.34 521.148C185.18 509.686 174.74 501.856 174.74 501.856C174.74 501.856 186.88 501.856 188.56 490.172C190.24 478.488 184.34 483.916 178.78 483.836C173.22 483.755 167.4 500.141 174.78 509.363C182.16 518.586 180.14 534.326 163.2 549.461C159.149 553.286 156.11 558.073 154.36 563.385C155.64 549.481 156.36 529.886 152.36 516.81C145.48 494.612 158.6 488.558 162.36 477.499C166.12 466.44 152.36 456.996 152.36 456.996C152.36 456.996 165.38 450.942 159.02 444.182C152.66 437.422 139.54 438.269 139.54 447.209C139.54 456.149 148.44 459.559 148.44 459.559C148.44 459.559 158.6 470.234 158.6 475.703C158.6 481.172 148.44 493.219 148.44 493.219C148.44 493.219 153.1 482.988 143.78 482.564C134.46 482.141 131.5 494.511 135.32 500.06C139.14 505.61 145.48 500.928 145.48 500.928C145.878 507.406 146.848 513.836 148.38 520.139C149.34 523.348 148.9 535.88 148.1 548.916C146.331 544.21 143.504 539.982 139.84 536.566C122.9 521.431 120.94 505.691 128.28 496.468C135.62 487.246 129.8 470.86 124.28 470.941C118.76 471.021 112.78 465.573 114.48 477.257C116.18 488.941 128.32 488.961 128.32 488.961C128.32 488.961 117.86 496.791 118.7 508.253C118.7 508.253 112.7 503.047 109.18 509.04C102.76 519.716 117.66 526.335 120.16 521.148C120.16 521.148 151.74 543.71 144.16 576.179L145.92 578.823C145.7 581.446 145.56 583.02 145.56 583.02L148.02 581.951L150.84 586.128C150.741 590.848 150.982 595.569 151.56 600.254L159.1 588.994C151.48 556.524 183.1 533.963 183.1 533.963C185.4 539.25 200.28 532.611 193.86 521.936Z" fill="#E0E0E0"/>
<path d="M187.68 660.451H115.34L107.54 580.538H195.5L187.68 660.451Z" fill="#E6E6E6"/>
<path d="M199.34 571.72H103.66V589.357H199.34V571.72Z" fill="#F0F0F0"/>
<path d="M500 751.826C714.165 751.826 887.78 741.599 887.78 728.982C887.78 716.366 714.165 706.139 500 706.139C285.835 706.139 112.22 716.366 112.22 728.982C112.22 741.599 285.835 751.826 500 751.826Z" fill="#F5F5F5"/>
<path d="M820.9 665.375C821.2 663.357 828.2 614.582 814.18 597.752C812.785 595.978 811.017 594.539 809.004 593.538C806.991 592.536 804.784 591.997 802.54 591.96C774.22 591.294 770.36 614.158 770.32 614.461L773.66 614.986C773.78 614.158 777.14 594.806 802.46 595.371C804.224 595.396 805.96 595.818 807.541 596.607C809.123 597.396 810.509 598.532 811.6 599.931C824.64 615.611 817.6 664.366 817.6 664.871L820.9 665.375Z" fill="#FD2D55"/>
<path d="M822.6 663.155L825.98 663.034C825.98 662.59 824.86 618.134 846.56 608.952C867.84 599.972 877.42 618.457 877.8 619.244L880.82 617.71C880.72 617.488 869.48 595.512 845.26 605.824C821.42 615.894 822.54 661.218 822.6 663.155Z" fill="#FD2D55"/>
<path d="M822.5 666.646C822.5 665.94 822.72 595.633 836.3 575.069C849.34 555.313 870.3 564.616 871.28 564.979L872.66 561.872C872.42 561.771 848.14 550.954 833.48 573.132C819.34 594.543 819.14 663.66 819.14 666.606L822.5 666.646Z" fill="#FD2D55"/>
<path d="M798.48 593.655C798.48 593.655 810.84 598.256 807.16 609.093C803.48 619.93 764.42 637.809 764.42 637.809C764.42 637.809 748.04 622.674 763.08 598.055C778.12 573.435 798.14 585.886 798.48 593.655Z" fill="#FD2D55"/>
<path d="M836.9 571.356C836.9 571.356 828.14 570.408 828.9 565.02C829.66 559.632 863.02 545.748 882.72 568.188C882.72 568.188 870.1 590.063 851.86 590.386C833.62 590.709 836.9 571.356 836.9 571.356Z" fill="#FD2D55"/>
<path d="M846 607.418C846 607.418 840 602.494 846.48 600.093C852.96 597.691 885.08 598.357 885.4 630.363C885.4 630.363 848.06 636.639 843.4 624.43C838.74 612.221 846 607.418 846 607.418Z" fill="#FD2D55"/>
<path opacity="0.2" d="M798.48 593.655C798.48 593.655 810.84 598.256 807.16 609.093C803.48 619.93 764.42 637.809 764.42 637.809C764.42 637.809 748.04 622.674 763.08 598.055C778.12 573.435 798.14 585.886 798.48 593.655Z" fill="black"/>
<path opacity="0.2" d="M836.9 571.356C836.9 571.356 828.14 570.408 828.9 565.02C829.66 559.632 863.02 545.748 882.72 568.188C882.72 568.188 870.1 590.063 851.86 590.386C833.62 590.709 836.9 571.356 836.9 571.356Z" fill="black"/>
<path opacity="0.2" d="M846 607.418C846 607.418 840 602.494 846.48 600.093C852.96 597.691 885.08 598.357 885.4 630.363C885.4 630.363 848.06 636.639 843.4 624.43C838.74 612.221 846 607.418 846 607.418Z" fill="black"/>
<path d="M791.84 730.657H849.8L856.04 666.646H785.6L791.84 730.657Z" fill="#FD2D55"/>
<path opacity="0.5" d="M791.84 730.657H849.8L856.04 666.646H785.6L791.84 730.657Z" fill="white"/>
<path d="M782.5 673.689H859.14V659.563H782.5V673.689Z" fill="#FD2D55"/>
<path opacity="0.2" d="M782.5 673.689H859.14V659.563H782.5V673.689Z" fill="white"/>
<path d="M726.24 684.768L668.62 679.057V597.328H645.78V679.017L588 684.768C585.229 685.043 582.659 686.348 580.788 688.43C578.918 690.511 577.881 693.219 577.88 696.028V704.766H736.44V696.028C736.441 693.205 735.395 690.484 733.507 688.4C731.619 686.316 729.027 685.02 726.24 684.768V684.768Z" fill="#263238"/>
<path opacity="0.2" d="M726.24 684.768L668.62 679.057V597.328H645.78V679.017L588 684.768C585.229 685.043 582.659 686.348 580.788 688.43C578.918 690.511 577.881 693.219 577.88 696.028V704.766H736.44V696.028C736.441 693.205 735.395 690.484 733.507 688.4C731.619 686.316 729.027 685.02 726.24 684.768V684.768Z" fill="white"/>
<path d="M583.9 730.677C592.151 730.677 598.84 723.928 598.84 715.603C598.84 707.278 592.151 700.529 583.9 700.529C575.649 700.529 568.96 707.278 568.96 715.603C568.96 723.928 575.649 730.677 583.9 730.677Z" fill="#263238"/>
<path d="M730.28 730.677C738.531 730.677 745.22 723.928 745.22 715.603C745.22 707.278 738.531 700.529 730.28 700.529C722.029 700.529 715.34 707.278 715.34 715.603C715.34 723.928 722.029 730.677 730.28 730.677Z" fill="#263238"/>
<path d="M641.86 542.116H672.56V606.55C672.56 608.761 671.69 610.881 670.141 612.444C668.592 614.007 666.491 614.885 664.3 614.885H650.12C647.929 614.885 645.828 614.007 644.279 612.444C642.73 610.881 641.86 608.761 641.86 606.55V542.116V542.116Z" fill="#263238"/>
<path opacity="0.3" d="M641.86 542.116H672.56V606.55C672.56 608.761 671.69 610.881 670.141 612.444C668.592 614.007 666.491 614.885 664.3 614.885H650.12C647.929 614.885 645.828 614.007 644.279 612.444C642.73 610.881 641.86 608.761 641.86 606.55V542.116V542.116Z" fill="white"/>
<path d="M711.8 414.396C711.8 414.396 716.16 523.368 686.08 542.116H720.42C720.42 542.116 747.02 505.005 739.5 414.396H711.8Z" fill="#263238"/>
<path opacity="0.3" d="M711.8 414.396C711.8 414.396 716.16 523.368 686.08 542.116H720.42C720.42 542.116 747.02 505.005 739.5 414.396H711.8Z" fill="white"/>
<path d="M732.1 550.47H578.26V536.97C578.26 534.294 579.313 531.727 581.189 529.835C583.064 527.943 585.608 526.88 588.26 526.88H722.1C724.752 526.88 727.296 527.943 729.171 529.835C731.046 531.727 732.1 534.294 732.1 536.97V550.47Z" fill="#263238"/>
<path d="M575.86 550.47H734.48C736.7 550.47 738.5 548.654 738.5 546.414V542.741C738.5 540.501 736.7 538.685 734.48 538.685H575.86C573.64 538.685 571.84 540.501 571.84 542.741V546.414C571.84 548.654 573.64 550.47 575.86 550.47Z" fill="#263238"/>
<path opacity="0.6" d="M575.86 550.47H734.48C736.7 550.47 738.5 548.654 738.5 546.414V542.741C738.5 540.501 736.7 538.685 734.48 538.685H575.86C573.64 538.685 571.84 540.501 571.84 542.741V546.414C571.84 548.654 573.64 550.47 575.86 550.47Z" fill="white"/>
<path d="M747.92 355.975H692.92C676.815 355.975 663.76 369.148 663.76 385.398V407.111C663.76 423.361 676.815 436.534 692.92 436.534H747.92C764.025 436.534 777.08 423.361 777.08 407.111V385.398C777.08 369.148 764.025 355.975 747.92 355.975Z" fill="#263238"/>
<path d="M526.1 266.941L515.12 237.741C515.12 237.741 519.84 233.341 516.6 228.882C513.36 224.422 493.12 211.89 489.44 214.09C485.76 216.289 477.54 224.603 481.98 229.225C486.42 233.846 505.98 241.534 505.98 241.534L515.7 279.876L526.1 266.941Z" fill="#E4897B"/>
<path d="M602.76 322.456C602.76 322.456 552.76 312.104 547.42 309.622C542.08 307.14 522 247.75 522 247.75L506.58 255.015C506.58 255.015 518.98 314.626 531.66 328.793C544.34 342.959 598.46 355.027 598.46 355.027L602.76 322.456Z" fill="#FD2D55"/>
<path opacity="0.2" d="M598.34 354.966L597.42 354.744C594.7 354.119 586.16 352.101 576.02 349.094C559.56 344.271 538.8 336.986 531.56 328.813C518.9 314.687 506.48 255.015 506.48 255.015L521.88 247.75C521.88 247.75 541.98 307.16 547.42 309.622C552.86 312.084 602.76 322.456 602.76 322.456L598.34 354.966Z" fill="black"/>
<path d="M522.14 246.579L525.32 252.775L505.52 259.656L506.28 252.089L522.14 246.579Z" fill="#FD2D55"/>
<path opacity="0.2" d="M598.72 354.139C595.96 353.735 587.3 352.383 576.94 350.103C582.84 339.811 600.12 334.524 600.12 334.524L598.72 354.139Z" fill="black"/>
<path d="M673.16 281.329C673.16 281.329 676.1 309.238 665.86 316.1C655.62 322.961 605.2 314.929 599.48 303.689C593.76 292.449 615.28 261.977 615.28 261.977L673.16 281.329Z" fill="#263238"/>
<path d="M469.18 648.565L482.34 651.774L489 633.45L495.04 616.782L480.06 610.344L474.3 630.564L469.18 648.565Z" fill="#E4897B"/>
<path opacity="0.2" d="M474.3 630.564L489 633.45L495.04 616.782L480.06 610.344L474.3 630.564Z" fill="black"/>
<path d="M475.62 620.898L493.86 627.739C493.86 627.739 542.52 504.984 552.52 504.641C562.52 504.298 664.34 551.439 689.86 525.245C715.38 499.051 678.48 435.888 678.48 435.888C678.48 435.888 617.1 427.049 612.48 441.034C611.343 445.156 610.475 449.349 609.88 453.586C609.18 457.864 608.7 461.456 608.7 461.456C606.8 460.972 545.18 444.929 520.9 461.456C496.2 478.266 475.62 620.898 475.62 620.898Z" fill="#FD2D55"/>
<path opacity="0.6" d="M475.62 620.898L493.86 627.739C493.86 627.739 542.52 504.984 552.52 504.641C562.52 504.298 664.34 551.439 689.86 525.245C715.38 499.051 678.48 435.888 678.48 435.888C678.48 435.888 617.1 427.049 612.48 441.034C611.343 445.156 610.475 449.349 609.88 453.586C609.18 457.864 608.7 461.456 608.7 461.456C606.8 460.972 545.18 444.929 520.9 461.456C496.2 478.266 475.62 620.898 475.62 620.898Z" fill="white"/>
<path d="M580.54 700.932L593.64 697.562L591.12 678.573L588.78 661.178L572.58 662.651L576.78 682.932L580.54 700.932Z" fill="#E4897B"/>
<path opacity="0.2" d="M576.88 683.335L591.2 678.936L588.82 661.359L572.6 662.752L576.88 683.335Z" fill="black"/>
<path d="M501.4 620.918L474.82 611.817L473.68 622.795L493.84 629.979L501.4 620.918Z" fill="#FD2D55"/>
<path d="M645.78 531.461C645.78 531.461 641.62 531.561 577.24 528.534C577.24 528.534 586.86 609.739 592.12 670.541L572.86 673.851C572.86 673.851 526.86 543.669 527.36 522.985C527.86 502.3 551.36 496.246 551.36 496.246C551.36 496.246 597.22 522.985 645.78 531.461Z" fill="#FD2D55"/>
<path opacity="0.6" d="M645.78 531.461C645.78 531.461 641.62 531.561 577.24 528.534C577.24 528.534 586.86 609.739 592.12 670.541L572.86 673.851C572.86 673.851 526.86 543.669 527.36 522.985C527.86 502.3 551.36 496.246 551.36 496.246C551.36 496.246 597.22 522.985 645.78 531.461Z" fill="white"/>
<path opacity="0.1" d="M645.78 531.461C645.78 531.461 641.62 531.561 577.24 528.534C577.24 528.534 586.86 609.739 592.12 670.541L572.86 673.851C572.86 673.851 526.86 543.669 527.36 522.985C527.86 502.3 551.36 496.246 551.36 496.246C551.36 496.246 597.22 522.985 645.78 531.461Z" fill="black"/>
<path d="M594.92 664.648L568.46 667.696L573.58 678.149L595 675.384L594.92 664.648Z" fill="#FD2D55"/>
<path opacity="0.1" d="M608.7 461.456L644.6 469.003C644.6 469.003 624.76 457.945 609.88 453.586C609.18 457.864 608.7 461.456 608.7 461.456Z" fill="black"/>
<path d="M677 426.262L678.48 435.888L612.48 441.034L610.74 429.632L677 426.262Z" fill="#263238"/>
<path opacity="0.2" d="M677 426.262L678.48 435.888L612.48 441.034L610.74 429.632L677 426.262Z" fill="black"/>
<path d="M656.184 442.39L659.447 442.051L657.739 425.289L654.476 425.628L656.184 442.39Z" fill="#FD2D55"/>
<path d="M626.863 440.715L641.313 439.778L640.608 428.722L626.158 429.659L626.863 440.715Z" fill="white"/>
<path d="M615.689 444.151L618.952 443.812L617.244 427.05L613.981 427.389L615.689 444.151Z" fill="#FD2D55"/>
<path opacity="0.6" d="M656.184 442.39L659.447 442.051L657.739 425.289L654.476 425.628L656.184 442.39Z" fill="white"/>
<path opacity="0.6" d="M615.689 444.151L618.952 443.812L617.244 427.05L613.981 427.389L615.689 444.151Z" fill="white"/>
<path d="M601.56 321.548C613.922 324.994 626.751 326.418 639.56 325.766C660.76 324.676 686 334.988 686 334.988L676.92 426.202L610.64 429.572C610.64 429.572 588.46 353.473 601.56 321.548Z" fill="#FD2D55"/>
<path d="M612.22 270.029C612.22 270.029 615.94 225.754 652.62 241.777C698.62 261.957 662.06 315.918 639.56 304.859C617.06 293.801 612.22 270.029 612.22 270.029Z" fill="#263238"/>
<path opacity="0.2" d="M622.5 328.248L623.56 353.271L631.78 341.506C631.78 341.506 628.84 369.173 630.56 384.247C630.56 384.247 632.14 357.226 635.86 341.506L644.6 353.271L657.14 328.409C657.14 328.409 636.84 321.044 622.5 328.248Z" fill="black"/>
<path d="M633.86 332.97L652.84 327.562C641.14 319.49 647.04 301.328 647.04 301.328L628.24 307.987C629.105 310.624 629.773 313.322 630.24 316.059C632.24 327.885 626.92 328.833 626.92 328.833L633.86 332.97Z" fill="#E4897B"/>
<path opacity="0.2" d="M628.24 307.886C629.105 310.523 629.773 313.221 630.24 315.958C639.24 312.306 647.02 301.187 647.02 301.187L628.24 307.886Z" fill="black"/>
<path d="M640.52 251.14C623.86 247.427 616.52 255.176 611.52 272.248C605.26 293.538 606.64 309.965 628.46 310.005C658.1 310.046 668.16 257.315 640.52 251.14Z" fill="#E4897B"/>
<path d="M622.48 273.722C620.605 275.933 618.469 277.905 616.12 279.594C616.456 280.402 617.008 281.1 617.714 281.61C618.421 282.119 619.254 282.42 620.12 282.48L622.48 273.722Z" fill="#DE5753"/>
<path d="M632.98 274.609C632.64 275.982 633.1 277.293 634.02 277.515C634.94 277.737 635.92 276.809 636.26 275.497C636.6 274.186 636.14 272.834 635.22 272.591C634.3 272.349 633.32 273.237 632.98 274.609Z" fill="#263238"/>
<path d="M635.58 272.692L632.92 270.795C632.92 270.795 633.78 273.681 635.58 272.692Z" fill="#263238"/>
<path d="M616.14 270.129C615.8 271.502 616.26 272.813 617.18 273.035C618.1 273.257 619.18 272.329 619.42 271.017C619.66 269.706 619.3 268.354 618.38 268.111C617.46 267.869 616.48 268.757 616.14 270.129Z" fill="#263238"/>
<path d="M618.74 268.212L616 266.376C616 266.376 616.94 269.181 618.74 268.212Z" fill="#263238"/>
<path d="M642.36 267.93C642.226 267.932 642.094 267.898 641.977 267.83C641.861 267.763 641.765 267.665 641.7 267.546C641.041 266.508 640.16 265.633 639.122 264.983C638.084 264.333 636.914 263.927 635.7 263.793C635.509 263.768 635.335 263.67 635.212 263.521C635.09 263.371 635.028 263.18 635.04 262.986C635.06 262.791 635.155 262.612 635.305 262.488C635.455 262.363 635.647 262.303 635.84 262.32C637.314 262.464 638.735 262.95 639.991 263.742C641.247 264.533 642.305 265.607 643.08 266.881C643.125 266.966 643.152 267.06 643.16 267.157C643.168 267.254 643.156 267.351 643.127 267.443C643.097 267.535 643.049 267.62 642.986 267.694C642.923 267.767 642.846 267.827 642.76 267.869C642.633 267.92 642.496 267.941 642.36 267.93Z" fill="#263238"/>
<path d="M623.74 260.322C623.604 260.32 623.472 260.278 623.36 260.201C622.377 259.725 621.3 259.478 620.21 259.478C619.12 259.478 618.043 259.725 617.06 260.201C616.973 260.237 616.881 260.255 616.787 260.254C616.694 260.253 616.601 260.233 616.516 260.195C616.43 260.157 616.352 260.103 616.288 260.035C616.223 259.966 616.173 259.886 616.14 259.797C616.104 259.709 616.086 259.614 616.087 259.518C616.088 259.422 616.107 259.327 616.144 259.239C616.182 259.151 616.236 259.071 616.304 259.004C616.371 258.937 616.452 258.884 616.54 258.849C617.735 258.288 619.041 258.011 620.359 258.039C621.676 258.067 622.97 258.399 624.14 259.01C624.22 259.062 624.29 259.129 624.345 259.207C624.4 259.286 624.438 259.375 624.459 259.469C624.479 259.562 624.481 259.659 624.464 259.754C624.447 259.848 624.412 259.939 624.36 260.019C624.289 260.117 624.195 260.195 624.087 260.248C623.979 260.301 623.86 260.326 623.74 260.322V260.322Z" fill="#263238"/>
<path d="M652.5 283.509C652.5 283.509 647.74 267.97 651.26 257.577C651.26 257.577 621.26 236.61 612.22 270.029C612.22 270.029 615.56 239.315 644.34 245.046C673.12 250.777 663.7 292.973 646.16 302.256C646.16 302.256 655.42 293.215 652.5 283.509Z" fill="#263238"/>
<path d="M649 286.556C649.585 284.647 650.898 283.05 652.648 282.115C654.399 281.181 656.446 280.985 658.34 281.572C663.38 283.287 663.48 294.527 650.1 294.224C648.16 294.083 647.52 292.045 649 286.556Z" fill="#E4897B"/>
<path d="M617.1 288.857C617.545 290.917 617.839 293.008 617.98 295.112H619.06C624.04 295.536 626.48 294.063 627.68 292.328C628.254 291.465 628.611 290.475 628.72 289.442C628.805 288.86 628.805 288.268 628.72 287.686C625.51 288.802 622.099 289.208 618.72 288.877C617.76 288.937 617.1 288.857 617.1 288.857Z" fill="#263238"/>
<path d="M618.8 288.978L619.1 290.814C623.78 291.197 627.1 290.814 628.72 289.543C628.805 288.961 628.805 288.369 628.72 287.787C625.535 288.891 622.153 289.297 618.8 288.978V288.978Z" fill="white"/>
<path d="M619.06 295.213C624.04 295.637 626.48 294.164 627.68 292.428C625.791 292.304 623.896 292.516 622.08 293.054C620.873 293.435 619.816 294.19 619.06 295.213Z" fill="#DE5753"/>
<path d="M640.58 252.492C640.58 252.492 641.22 281.612 658.58 285.123C675.94 288.635 656.98 247.669 656.98 247.669C656.98 247.669 631.18 230.678 613.98 242.665C596.78 254.651 612.26 270.029 612.26 270.029C612.26 270.029 615.84 248.396 640.58 252.492Z" fill="#263238"/>
<path d="M647.2 279.15C647.083 279.149 646.969 279.106 646.88 279.029C634.56 269.262 640.64 250.575 640.7 250.393C640.745 250.267 640.837 250.163 640.956 250.103C641.075 250.043 641.213 250.032 641.34 250.071C641.465 250.116 641.566 250.21 641.623 250.331C641.679 250.452 641.685 250.591 641.64 250.716C641.64 250.898 635.74 268.878 647.5 278.242C647.548 278.287 647.586 278.342 647.612 278.403C647.638 278.463 647.652 278.529 647.652 278.595C647.652 278.661 647.638 278.727 647.612 278.787C647.586 278.848 647.548 278.903 647.5 278.948C647.467 279.001 647.423 279.047 647.371 279.081C647.32 279.116 647.261 279.14 647.2 279.15Z" fill="#263238"/>
<path d="M663.6 291.096C661.4 297.029 655.74 300.359 650.96 298.563C646.18 296.767 644.1 290.491 646.3 284.558C648.5 278.625 654.16 275.296 658.94 277.112C663.72 278.928 665.8 285.184 663.6 291.096Z" fill="#FD2D55"/>
<path opacity="0.4" d="M663.6 291.096C661.4 297.029 655.74 300.359 650.96 298.563C646.18 296.767 644.1 290.491 646.3 284.558C648.5 278.625 654.16 275.296 658.94 277.112C663.72 278.928 665.8 285.184 663.6 291.096Z" fill="black"/>
<path d="M658 281.39C658 281.39 665.18 248.961 649.08 240.465C650.914 240.707 652.731 241.064 654.52 241.534C656.52 242.14 669.46 255.297 662.96 284.437L658 281.39Z" fill="#FD2D55"/>
<path opacity="0.2" d="M658 281.39C658 281.39 665.18 248.961 649.08 240.465C650.914 240.707 652.731 241.064 654.52 241.534C656.52 242.14 669.46 255.297 662.96 284.437L658 281.39Z" fill="black"/>
<path d="M628 299.955L626.8 299.774L627.12 297.756C635.953 299.126 644.978 297.196 652.5 292.327L653.68 293.942C646.116 298.999 636.998 301.134 628 299.955V299.955Z" fill="#FD2D55"/>
<g opacity="0.2">
<path opacity="0.2" d="M628 299.955L626.8 299.774L627.12 297.756C635.953 299.126 644.978 297.196 652.5 292.327L653.68 293.942C646.116 298.999 636.998 301.134 628 299.955V299.955Z" fill="black"/>
</g>
<path d="M662.92 290.289C661.48 294.204 657.72 296.343 654.58 295.213C651.44 294.083 650.04 289.886 651.5 285.971C652.96 282.056 656.7 279.917 659.84 281.047C662.98 282.177 664.38 286.374 662.92 290.289Z" fill="#FD2D55"/>
<path d="M626.12 300.682L624.5 300.46C624.217 300.423 623.944 300.329 623.698 300.185C623.451 300.041 623.235 299.849 623.062 299.62C622.889 299.391 622.762 299.13 622.69 298.852C622.618 298.573 622.601 298.283 622.64 297.998C622.675 297.711 622.765 297.434 622.907 297.182C623.049 296.931 623.239 296.71 623.466 296.534C623.693 296.357 623.953 296.228 624.23 296.154C624.507 296.079 624.796 296.062 625.08 296.101L626.68 296.323C627.25 296.404 627.767 296.706 628.118 297.167C628.47 297.627 628.628 298.208 628.56 298.785V298.785C628.48 299.361 628.18 299.882 627.724 300.236C627.268 300.591 626.692 300.751 626.12 300.682V300.682Z" fill="#FD2D55"/>
<path opacity="0.4" d="M626.12 300.682L624.5 300.46C624.217 300.423 623.944 300.329 623.698 300.185C623.451 300.041 623.235 299.849 623.062 299.62C622.889 299.391 622.762 299.13 622.69 298.852C622.618 298.573 622.601 298.283 622.64 297.998C622.675 297.711 622.765 297.434 622.907 297.182C623.049 296.931 623.239 296.71 623.466 296.534C623.693 296.357 623.953 296.228 624.23 296.154C624.507 296.079 624.796 296.062 625.08 296.101L626.68 296.323C627.25 296.404 627.767 296.706 628.118 297.167C628.47 297.627 628.628 298.208 628.56 298.785V298.785C628.48 299.361 628.18 299.882 627.724 300.236C627.268 300.591 626.692 300.751 626.12 300.682V300.682Z" fill="black"/>
<path d="M647.74 320.559L635.86 332.324L640.62 346.773L657.14 328.409L647.74 320.559Z" fill="#FD2D55"/>
<path d="M630.56 323.021L632.48 332.082L626.34 344.896L622.5 328.248L630.56 323.021Z" fill="#FD2D55"/>
<path d="M645.2 330.77L652.1 305.283C652.1 305.283 648.76 298.946 649.48 297.615C650.2 296.283 653.8 279.17 656.36 277.314C658.92 275.457 669.46 278.625 670.52 280.361C671.58 282.096 660.42 305.283 660.42 305.283L656.42 332.909L645.2 330.77Z" fill="#E4897B"/>
<path d="M686 334.988C705 354.603 666.94 399.039 645.12 397.142C623.3 395.246 645.68 314.687 645.68 314.687L659.68 317.008C659.68 317.008 654.78 351.879 656.32 354.603C657.86 357.327 679.7 328.47 686 334.988Z" fill="#FD2D55"/>
<path opacity="0.2" d="M686 334.988C705 354.603 666.94 399.039 645.12 397.142C623.3 395.246 645.68 314.687 645.68 314.687L659.68 317.008C659.68 317.008 654.78 351.879 656.32 354.603C657.86 357.327 679.7 328.47 686 334.988Z" fill="black"/>
<path d="M644.6 312.164L642.54 318.824L662 320.559V314.747L644.6 312.164Z" fill="#FD2D55"/>
<path opacity="0.6" d="M615.1 364.854H607.22C606.347 364.854 605.64 365.568 605.64 366.449V381.463C605.64 382.343 606.347 383.057 607.22 383.057H615.1C615.973 383.057 616.68 382.343 616.68 381.463V366.449C616.68 365.568 615.973 364.854 615.1 364.854Z" fill="white"/>
<path opacity="0.2" d="M615.26 366.065H606.3V378.436H615.26V366.065Z" fill="black"/>
<path d="M611.98 360.475H610V367.76H611.98V360.475Z" fill="#263238"/>
<path d="M447.42 674.355C449.415 673.419 451.564 672.864 453.76 672.72V672.72C453.76 672.72 461.36 668.22 468.88 650.684H477.34C478.774 650.694 480.171 651.151 481.338 651.993C482.505 652.835 483.386 654.02 483.86 655.386C484.001 655.761 484.082 656.156 484.1 656.556C484 658.619 483.779 660.674 483.44 662.711C482.202 669.533 480.552 676.272 478.5 682.891L477.06 682.528L479.66 669.774C480.54 665.456 476.02 669.633 473.94 673.992C471.86 678.351 468.64 682.77 459.28 680.611C448.38 677.907 444 676.333 447.42 674.355Z" fill="#FD2D55"/>
<path d="M470.42 646.103C470.42 646.103 459.84 668.422 453.76 672.721C453.76 672.721 461.92 677.624 470.42 666.667C481.4 652.541 484.1 656.476 484.1 656.476C483.87 654.038 483.421 651.627 482.76 649.271C481.12 644.751 470.42 646.103 470.42 646.103Z" fill="#E4897B"/>
<path d="M563.86 727.529C565.588 726.155 567.545 725.102 569.64 724.422V724.422C569.64 724.422 575.96 718.226 579.14 699.398L587.36 697.38C588.755 697.056 590.215 697.173 591.543 697.714C592.87 698.256 594 699.196 594.78 700.407C595.005 700.743 595.18 701.11 595.3 701.497C595.7 703.496 595.974 705.518 596.12 707.551C596.504 714.448 596.471 721.363 596.02 728.256H594.54L594.08 715.26C593.9 710.841 590.52 715.986 589.5 720.729C588.48 725.471 586.42 730.496 576.82 730.637C565.64 730.758 561 730.274 563.86 727.529Z" fill="#FD2D55"/>
<path d="M579.56 694.576C579.56 694.576 574.54 718.792 569.56 724.422C569.56 724.422 578.64 727.247 584.32 714.594C591.68 698.248 595.22 701.437 595.22 701.437C594.429 699.124 593.432 696.888 592.24 694.757C589.64 690.721 579.56 694.576 579.56 694.576Z" fill="#E4897B"/>
<path d="M765.52 206.139H695.7C690.1 206.139 685.56 210.719 685.56 216.37V246.499C685.56 252.149 690.1 256.73 695.7 256.73H765.52C771.12 256.73 775.66 252.149 775.66 246.499V216.37C775.66 210.719 771.12 206.139 765.52 206.139Z" fill="#FD2D55"/>
<path d="M709.7 250.958L688.66 279.816L722.6 252.896L709.7 250.958Z" fill="#FD2D55"/>
<path d="M710.48 231.424C710.484 232.017 710.313 232.597 709.99 233.091C709.666 233.585 709.204 233.971 708.662 234.2C708.12 234.428 707.524 234.489 706.948 234.375C706.371 234.26 705.842 233.975 705.427 233.556C705.012 233.137 704.73 232.603 704.616 232.022C704.502 231.441 704.563 230.839 704.789 230.292C705.016 229.746 705.398 229.279 705.888 228.953C706.378 228.626 706.953 228.454 707.54 228.458C708.32 228.458 709.068 228.77 709.619 229.327C710.17 229.883 710.48 230.637 710.48 231.424V231.424Z" fill="white"/>
<path d="M725.86 231.424C725.864 232.017 725.693 232.597 725.37 233.091C725.046 233.585 724.584 233.971 724.042 234.2C723.5 234.428 722.904 234.489 722.328 234.375C721.752 234.26 721.222 233.975 720.807 233.556C720.392 233.137 720.11 232.603 719.996 232.022C719.883 231.441 719.943 230.839 720.169 230.292C720.396 229.746 720.778 229.279 721.268 228.953C721.758 228.626 722.333 228.454 722.92 228.458C723.7 228.458 724.448 228.77 724.999 229.327C725.55 229.883 725.86 230.637 725.86 231.424V231.424Z" fill="white"/>
<path d="M741.24 231.424C741.244 232.017 741.073 232.597 740.75 233.091C740.426 233.585 739.964 233.971 739.422 234.2C738.88 234.428 738.284 234.489 737.707 234.375C737.131 234.26 736.602 233.975 736.187 233.556C735.772 233.137 735.49 232.603 735.376 232.022C735.262 231.441 735.323 230.839 735.549 230.292C735.776 229.746 736.158 229.279 736.648 228.953C737.138 228.626 737.713 228.454 738.3 228.458C739.08 228.458 739.828 228.77 740.379 229.327C740.93 229.883 741.24 230.637 741.24 231.424V231.424Z" fill="white"/>
<path d="M756.62 231.424C756.624 232.017 756.453 232.597 756.13 233.091C755.806 233.585 755.344 233.971 754.802 234.2C754.26 234.428 753.664 234.489 753.088 234.375C752.512 234.26 751.982 233.975 751.567 233.556C751.152 233.137 750.87 232.603 750.756 232.022C750.643 231.441 750.703 230.839 750.929 230.292C751.156 229.746 751.538 229.279 752.028 228.953C752.518 228.626 753.093 228.454 753.68 228.458C754.46 228.458 755.208 228.77 755.759 229.327C756.31 229.883 756.62 230.637 756.62 231.424V231.424Z" fill="white"/>
<path d="M503.347 182.282L453.534 155.208C452.192 154.478 450.518 154.985 449.796 156.339L433.899 186.115C433.176 187.469 433.678 189.158 435.02 189.888L484.833 216.962C486.175 217.691 487.849 217.185 488.572 215.831L504.468 186.054C505.191 184.7 504.689 183.011 503.347 182.282Z" fill="#FD2D55"/>
<path opacity="0.7" d="M503.347 182.282L453.534 155.208C452.192 154.478 450.518 154.985 449.796 156.339L433.899 186.115C433.176 187.469 433.678 189.158 435.02 189.888L484.833 216.962C486.175 217.691 487.849 217.185 488.572 215.831L504.468 186.054C505.191 184.7 504.689 183.011 503.347 182.282Z" fill="white"/>
<path opacity="0.2" d="M448.5 158.796L464 188.158C464.595 189.277 465.506 190.192 466.616 190.788C467.727 191.385 468.988 191.635 470.24 191.508L502.66 188.279L469.66 193.183C468.218 193.398 466.745 193.137 465.462 192.439C464.179 191.741 463.154 190.643 462.54 189.309L448.5 158.796Z" fill="black"/>
<path d="M410.68 153.368C411.22 142.148 419.46 119.526 429.48 112.604C439.5 105.683 432.9 115.268 432.9 115.268C432.9 115.268 442.4 105.945 447.4 106.227C452.4 106.51 447.4 112.281 447.4 112.281C447.4 112.281 457.7 105.884 462.44 106.227C467.18 106.571 462.44 112.1 462.44 112.1C462.44 112.1 470.88 106.046 474.3 108.891C477.72 111.737 430.52 143.197 425.26 155.991C420 168.786 410.14 164.689 410.68 153.368Z" fill="#FD2D55"/>
<path opacity="0.4" d="M410.68 153.368C411.22 142.148 419.46 119.526 429.48 112.604C439.5 105.683 432.9 115.268 432.9 115.268C432.9 115.268 442.4 105.945 447.4 106.227C452.4 106.51 447.4 112.281 447.4 112.281C447.4 112.281 457.7 105.884 462.44 106.227C467.18 106.571 462.44 112.1 462.44 112.1C462.44 112.1 470.88 106.046 474.3 108.891C477.72 111.737 430.52 143.197 425.26 155.991C420 168.786 410.14 164.689 410.68 153.368Z" fill="white"/>
<path d="M451.24 151.673L457.54 155.709C457.639 155.771 457.715 155.865 457.755 155.976C457.795 156.087 457.796 156.209 457.759 156.321C457.722 156.433 457.649 156.529 457.551 156.594C457.453 156.658 457.336 156.688 457.22 156.678L450.6 156.153L451.16 161.279C451.176 161.399 451.153 161.522 451.095 161.629C451.036 161.736 450.945 161.82 450.834 161.87C450.724 161.92 450.601 161.933 450.483 161.906C450.365 161.88 450.259 161.815 450.18 161.723L446.36 157.404L451.24 151.673Z" fill="#FD2D55"/>
<path opacity="0.3" d="M451.24 151.673L457.54 155.709C457.639 155.771 457.715 155.865 457.755 155.976C457.795 156.087 457.796 156.209 457.759 156.321C457.722 156.433 457.649 156.529 457.551 156.594C457.453 156.658 457.336 156.688 457.22 156.678L450.6 156.153L451.16 161.279C451.176 161.399 451.153 161.522 451.095 161.629C451.036 161.736 450.945 161.82 450.834 161.87C450.724 161.92 450.601 161.933 450.483 161.906C450.365 161.88 450.259 161.815 450.18 161.723L446.36 157.404L451.24 151.673Z" fill="white"/>
<path d="M362.74 126.407C362.74 126.407 371.46 120.353 384.64 124.268C384.64 124.268 388.42 141.845 398.8 147.697C404.5 150.906 418.44 150.623 429.48 147.031C442.58 142.753 448.98 142.753 451.36 147.697C453.74 152.641 451.1 157.787 441.08 160.189C431.06 162.59 423.08 180.147 404.94 180.369C386.8 180.591 377.16 162.207 381.74 146.063C377.404 137.81 370.809 130.987 362.74 126.407Z" fill="#FD2D55"/>
<path opacity="0.5" d="M362.74 126.407C362.74 126.407 371.46 120.353 384.64 124.268C384.64 124.268 388.42 141.845 398.8 147.697C404.5 150.906 418.44 150.623 429.48 147.031C442.58 142.753 448.98 142.753 451.36 147.697C453.74 152.641 451.1 157.787 441.08 160.189C431.06 162.59 423.08 180.147 404.94 180.369C386.8 180.591 377.16 162.207 381.74 146.063C377.404 137.81 370.809 130.987 362.74 126.407Z" fill="white"/>
<path d="M446.36 151.027C446.36 151.207 446.307 151.382 446.208 151.532C446.109 151.681 445.969 151.797 445.804 151.866C445.64 151.935 445.459 151.953 445.284 151.918C445.11 151.883 444.95 151.796 444.824 151.669C444.698 151.542 444.612 151.38 444.577 151.204C444.543 151.028 444.56 150.845 444.629 150.68C444.697 150.514 444.812 150.372 444.96 150.272C445.108 150.172 445.282 150.119 445.46 150.119C445.699 150.119 445.928 150.215 446.096 150.385C446.265 150.555 446.36 150.786 446.36 151.027V151.027Z" fill="#263238"/>
<path d="M400.72 165.799C389.98 168.745 366.1 167.817 356.5 160.35C346.9 152.884 357.94 156.314 357.94 156.314C357.94 156.314 346.24 150.079 344.94 145.195C343.64 140.311 350.7 143.298 350.7 143.298C350.7 143.298 341.5 135.408 340.3 130.766C339.1 126.125 345.82 128.95 345.82 128.95C345.82 128.95 337.44 122.735 339.14 118.557C340.84 114.38 385.02 149.978 398.68 151.088C412.34 152.198 411.6 162.812 400.72 165.799Z" fill="#FD2D55"/>
<path opacity="0.4" d="M400.72 165.799C389.98 168.745 366.1 167.817 356.5 160.35C346.9 152.884 357.94 156.314 357.94 156.314C357.94 156.314 346.24 150.079 344.94 145.195C343.64 140.311 350.7 143.298 350.7 143.298C350.7 143.298 341.5 135.408 340.3 130.766C339.1 126.125 345.82 128.95 345.82 128.95C345.82 128.95 337.44 122.735 339.14 118.557C340.84 114.38 385.02 149.978 398.68 151.088C412.34 152.198 411.6 162.812 400.72 165.799Z" fill="white"/>
<path d="M330.32 116.701C330.241 116.721 330.159 116.721 330.08 116.701C328.22 116.035 326.32 115.409 324.4 114.824C324.21 114.764 324.051 114.63 323.958 114.453C323.864 114.276 323.844 114.068 323.9 113.876C323.96 113.684 324.092 113.524 324.268 113.43C324.444 113.335 324.649 113.314 324.84 113.371C326.84 113.956 328.7 114.602 330.58 115.389C330.748 115.447 330.889 115.563 330.979 115.717C331.069 115.871 331.101 116.053 331.069 116.228C331.038 116.404 330.945 116.563 330.807 116.675C330.67 116.788 330.497 116.847 330.32 116.842V116.701Z" fill="#FD2D55"/>
<path d="M209.44 280.502C209.242 280.502 209.051 280.424 208.91 280.285C208.768 280.145 208.685 279.955 208.68 279.755C208.68 279.555 208.757 279.363 208.895 279.22C209.034 279.077 209.222 278.994 209.42 278.988C213.399 278.931 217.366 278.54 221.28 277.818C221.476 277.782 221.678 277.826 221.843 277.939C222.007 278.052 222.121 278.226 222.16 278.423C222.18 278.522 222.181 278.623 222.161 278.721C222.142 278.82 222.103 278.913 222.047 278.996C221.991 279.079 221.919 279.149 221.835 279.204C221.752 279.258 221.658 279.294 221.56 279.311C217.56 280.05 213.506 280.448 209.44 280.502V280.502ZM197.44 279.856C193.404 279.422 189.397 278.748 185.44 277.838C185.244 277.795 185.073 277.675 184.965 277.505C184.856 277.335 184.818 277.128 184.86 276.93C184.908 276.736 185.028 276.569 185.196 276.463C185.364 276.358 185.567 276.322 185.76 276.365C189.655 277.25 193.594 277.924 197.56 278.383C197.738 278.412 197.9 278.505 198.016 278.643C198.133 278.782 198.197 278.958 198.197 279.14C198.197 279.322 198.133 279.498 198.016 279.636C197.9 279.775 197.738 279.867 197.56 279.897L197.44 279.856ZM232.98 275.82C232.836 275.821 232.695 275.779 232.574 275.7C232.454 275.622 232.358 275.509 232.3 275.376C232.257 275.285 232.233 275.186 232.229 275.085C232.225 274.985 232.241 274.884 232.276 274.79C232.312 274.695 232.366 274.609 232.435 274.537C232.505 274.464 232.588 274.406 232.68 274.367C236.312 272.787 239.684 270.657 242.68 268.051C242.833 267.933 243.025 267.878 243.216 267.898C243.408 267.917 243.585 268.009 243.712 268.155C243.839 268.301 243.907 268.49 243.901 268.684C243.895 268.879 243.816 269.063 243.68 269.201C240.564 271.898 237.065 274.109 233.3 275.76C233.19 275.821 233.066 275.856 232.94 275.861L232.98 275.82ZM174 274.448C173.921 274.468 173.839 274.468 173.76 274.448C169.96 273.177 166.14 271.683 162.44 270.049C162.276 269.954 162.153 269.801 162.094 269.62C162.036 269.439 162.046 269.242 162.124 269.069C162.201 268.895 162.34 268.756 162.513 268.68C162.686 268.604 162.881 268.595 163.06 268.656C166.7 270.271 170.46 271.744 174.24 273.015C174.427 273.084 174.58 273.224 174.666 273.405C174.752 273.586 174.764 273.794 174.7 273.984C174.643 274.123 174.546 274.243 174.421 274.325C174.296 274.408 174.149 274.451 174 274.448V274.448ZM152 264.64C151.883 264.676 151.757 264.676 151.64 264.64C148.06 262.622 144.58 260.443 141.34 258.163C141.26 258.106 141.192 258.033 141.139 257.95C141.087 257.866 141.051 257.773 141.035 257.676C141.018 257.578 141.02 257.478 141.042 257.382C141.063 257.285 141.104 257.194 141.16 257.113C141.216 257.032 141.288 256.964 141.371 256.911C141.454 256.858 141.546 256.822 141.643 256.805C141.739 256.788 141.838 256.791 141.934 256.813C142.029 256.834 142.12 256.875 142.2 256.932C145.4 259.172 148.82 261.331 152.38 263.329C152.466 263.377 152.542 263.442 152.603 263.52C152.664 263.598 152.708 263.688 152.734 263.784C152.761 263.88 152.767 263.98 152.755 264.079C152.742 264.177 152.71 264.272 152.66 264.358C152.575 264.489 152.454 264.591 152.312 264.652C152.169 264.713 152.012 264.73 151.86 264.701L152 264.64ZM250.88 260.019C250.763 260.055 250.637 260.055 250.52 260.019C250.434 259.971 250.358 259.906 250.297 259.828C250.236 259.75 250.192 259.66 250.166 259.564C250.139 259.468 250.133 259.368 250.145 259.269C250.158 259.171 250.19 259.076 250.24 258.99C250.86 257.9 251.44 256.77 251.96 255.6C253.073 253.129 253.944 250.554 254.56 247.911C254.612 247.716 254.736 247.548 254.908 247.443C255.079 247.338 255.284 247.303 255.48 247.346C255.673 247.398 255.837 247.525 255.939 247.699C256.04 247.872 256.069 248.079 256.02 248.274C255.367 251.004 254.464 253.666 253.32 256.225C252.78 257.436 252.18 258.627 251.54 259.757C251.455 259.886 251.333 259.986 251.19 260.044C251.047 260.101 250.89 260.114 250.74 260.08L250.88 260.019ZM132.28 250.696C132.104 250.693 131.934 250.629 131.8 250.514C128.754 247.8 125.9 244.873 123.26 241.756C123.122 241.613 123.045 241.421 123.045 241.222C123.045 241.022 123.122 240.83 123.26 240.687C123.398 240.549 123.585 240.471 123.78 240.471C123.975 240.471 124.161 240.549 124.3 240.687C126.893 243.738 129.693 246.604 132.68 249.263C132.818 249.406 132.895 249.598 132.895 249.798C132.895 249.998 132.818 250.19 132.68 250.333C132.63 250.442 132.555 250.538 132.461 250.611C132.367 250.685 132.257 250.735 132.14 250.757L132.28 250.696ZM256.64 236.691C256.541 236.691 256.443 236.671 256.352 236.632C256.261 236.594 256.178 236.537 256.109 236.465C256.041 236.394 255.986 236.309 255.95 236.216C255.914 236.123 255.897 236.024 255.9 235.924C255.871 231.911 255.503 227.908 254.8 223.958C254.765 223.76 254.808 223.556 254.92 223.39C255.032 223.224 255.205 223.109 255.4 223.07C255.598 223.04 255.8 223.088 255.964 223.205C256.128 223.321 256.241 223.497 256.28 223.695C257 227.732 257.374 231.823 257.4 235.924C257.4 236.128 257.32 236.323 257.177 236.467C257.035 236.61 256.842 236.691 256.64 236.691V236.691ZM252.64 212.758C252.478 212.756 252.321 212.702 252.191 212.604C252.062 212.506 251.967 212.369 251.92 212.213C250.9 208.681 249.64 204.928 248.1 200.73C248.062 200.637 248.043 200.536 248.044 200.434C248.046 200.333 248.068 200.233 248.109 200.141C248.15 200.048 248.21 199.965 248.284 199.896C248.358 199.828 248.445 199.775 248.54 199.742C248.726 199.676 248.93 199.685 249.109 199.768C249.288 199.851 249.428 200 249.5 200.186C251.06 204.423 252.32 208.258 253.36 211.769C253.416 211.962 253.396 212.169 253.302 212.346C253.209 212.524 253.05 212.657 252.86 212.717L252.64 212.758ZM244.36 189.853C244.221 189.854 244.085 189.815 243.968 189.74C243.851 189.665 243.758 189.557 243.7 189.43C242.42 186.201 240.68 182.488 238.86 178.553V178.351C238.808 178.175 238.82 177.986 238.894 177.818C238.969 177.651 239.1 177.516 239.265 177.437C239.429 177.359 239.616 177.343 239.791 177.392C239.967 177.441 240.119 177.552 240.22 177.705V177.907C242.06 181.943 243.78 185.595 245.06 188.764C245.141 188.954 245.144 189.168 245.069 189.361C244.994 189.554 244.847 189.709 244.66 189.793L244.36 189.853ZM234.36 167.655C234.213 167.66 234.068 167.62 233.943 167.541C233.818 167.462 233.72 167.347 233.66 167.211C231.86 162.994 230.42 159.261 229.28 155.81C229.216 155.62 229.228 155.412 229.314 155.231C229.4 155.049 229.553 154.91 229.74 154.841C229.931 154.777 230.139 154.792 230.319 154.883C230.499 154.974 230.636 155.133 230.7 155.325C231.82 158.736 233.24 162.429 235.04 166.606C235.079 166.697 235.1 166.796 235.101 166.895C235.102 166.995 235.084 167.093 235.046 167.185C235.009 167.277 234.954 167.361 234.884 167.431C234.814 167.502 234.731 167.557 234.64 167.595C234.573 167.666 234.491 167.722 234.4 167.756L234.36 167.655ZM227.04 144.529C226.861 144.527 226.689 144.46 226.553 144.342C226.418 144.224 226.328 144.062 226.3 143.883C225.957 141.721 225.783 139.535 225.78 137.345C225.763 135.389 225.938 133.435 226.3 131.513C226.358 131.334 226.479 131.183 226.64 131.088C226.801 130.993 226.991 130.961 227.174 130.998C227.357 131.036 227.519 131.14 227.631 131.29C227.743 131.441 227.796 131.628 227.78 131.816C227.434 133.638 227.266 135.49 227.28 137.345C227.287 139.46 227.454 141.572 227.78 143.661C227.804 143.858 227.753 144.057 227.639 144.218C227.524 144.379 227.353 144.49 227.16 144.529H227.04ZM232.26 121.605C232.086 121.609 231.916 121.552 231.78 121.443C231.642 121.3 231.565 121.108 231.565 120.908C231.565 120.709 231.642 120.517 231.78 120.374C234.465 117.209 237.732 114.598 241.4 112.685C241.575 112.591 241.781 112.57 241.971 112.626C242.162 112.683 242.323 112.813 242.42 112.988C242.507 113.168 242.522 113.375 242.462 113.566C242.403 113.758 242.273 113.919 242.1 114.017C238.607 115.84 235.496 118.327 232.94 121.342C232.874 121.454 232.78 121.546 232.668 121.61C232.556 121.673 232.429 121.706 232.3 121.706L232.26 121.605ZM312.9 111.716H312.74C308.9 110.909 304.92 110.223 300.9 109.698C300.802 109.686 300.708 109.654 300.623 109.605C300.538 109.555 300.463 109.489 300.404 109.41C300.344 109.331 300.301 109.241 300.276 109.145C300.251 109.049 300.246 108.949 300.26 108.851C300.272 108.752 300.304 108.657 300.353 108.571C300.402 108.486 300.468 108.41 300.546 108.35C300.624 108.29 300.713 108.246 300.808 108.221C300.904 108.196 301.003 108.191 301.1 108.205C305.1 108.73 309.1 109.416 313.1 110.223C313.279 110.265 313.438 110.371 313.545 110.521C313.653 110.672 313.703 110.857 313.686 111.042C313.669 111.227 313.586 111.399 313.452 111.527C313.319 111.655 313.144 111.729 312.96 111.737L312.9 111.716ZM252.9 110.001C252.803 110.012 252.704 110.003 252.611 109.975C252.517 109.947 252.429 109.901 252.353 109.84C252.277 109.778 252.214 109.701 252.167 109.615C252.12 109.528 252.09 109.433 252.08 109.335C252.069 109.237 252.078 109.138 252.106 109.043C252.133 108.949 252.179 108.86 252.24 108.784C252.301 108.707 252.377 108.643 252.463 108.596C252.549 108.548 252.643 108.518 252.74 108.508C256.69 107.614 260.701 107.027 264.74 106.752C264.938 106.741 265.133 106.809 265.283 106.941C265.432 107.073 265.525 107.259 265.54 107.458C265.548 107.558 265.536 107.658 265.505 107.754C265.474 107.849 265.425 107.936 265.359 108.012C265.294 108.087 265.214 108.148 265.125 108.192C265.036 108.235 264.939 108.261 264.84 108.266C260.868 108.525 256.923 109.098 253.04 109.981L252.9 110.001ZM288.9 108.589C285.42 108.346 281.28 108.084 276.9 108.003C276.702 107.998 276.514 107.915 276.375 107.772C276.237 107.628 276.16 107.436 276.16 107.236C276.16 107.137 276.18 107.038 276.218 106.946C276.257 106.854 276.313 106.771 276.384 106.701C276.455 106.632 276.539 106.577 276.631 106.541C276.723 106.504 276.821 106.487 276.92 106.49C281.34 106.591 285.52 106.833 288.92 107.075C289.019 107.08 289.116 107.105 289.205 107.149C289.294 107.192 289.374 107.254 289.439 107.329C289.505 107.404 289.554 107.492 289.585 107.587C289.616 107.682 289.628 107.783 289.62 107.882C289.635 108.064 289.584 108.246 289.478 108.394C289.371 108.542 289.216 108.647 289.04 108.689L288.9 108.589Z" fill="#FD2D55"/>
<path d="M116.72 232.07C116.586 232.072 116.454 232.038 116.337 231.97C116.221 231.903 116.125 231.805 116.06 231.687C115.049 229.915 114.147 228.082 113.36 226.198C113.321 226.106 113.3 226.008 113.299 225.909C113.298 225.809 113.316 225.71 113.354 225.618C113.391 225.526 113.446 225.442 113.516 225.372C113.586 225.302 113.669 225.246 113.76 225.209C113.943 225.134 114.148 225.135 114.331 225.21C114.514 225.285 114.661 225.43 114.74 225.612C115.512 227.437 116.387 229.216 117.36 230.94C117.435 231.052 117.477 231.183 117.482 231.319C117.486 231.454 117.454 231.588 117.387 231.705C117.321 231.823 117.223 231.919 117.105 231.983C116.987 232.048 116.854 232.078 116.72 232.07V232.07Z" fill="#FD2D55"/>
<path d="M359.62 391.573H283.7V407.273H359.62V391.573Z" fill="white"/>
<path opacity="0.1" d="M359.62 391.573H283.7V407.273H359.62V391.573Z" fill="black"/>
<path opacity="0.1" d="M315.68 391.573H283.7V407.273H315.68V391.573Z" fill="black"/>
<path opacity="0.1" d="M283.7 393.833H351.28L283.7 395.77V393.833Z" fill="black"/>
<path opacity="0.1" d="M359.62 396.557L301.04 398.03H359.62V396.557Z" fill="black"/>
<path opacity="0.1" d="M286.8 400.956L315.68 399.766L358.14 400.956L315.68 401.622L286.8 400.956Z" fill="black"/>
<path opacity="0.1" d="M283.7 404.286H333.74L283.7 405.477V404.286Z" fill="black"/>
<path opacity="0.1" d="M359.5 405.477L326.08 406.102H359.62L359.5 405.477Z" fill="black"/>
<path d="M349.06 375.873H273.14V391.573H349.06V375.873Z" fill="white"/>
<path opacity="0.1" d="M349.06 375.873H273.14V391.573H349.06V375.873Z" fill="black"/>
<path opacity="0.1" d="M305.12 375.873H273.14V391.573H305.12V375.873Z" fill="black"/>
<path opacity="0.1" d="M273.14 378.133H340.72L273.14 380.05V378.133Z" fill="black"/>
<path opacity="0.1" d="M349.06 380.857L290.48 382.33H349.06V380.857Z" fill="black"/>
<path opacity="0.1" d="M276.22 385.256L305.1 384.046L347.56 385.256L305.1 385.922L276.22 385.256Z" fill="black"/>
<path opacity="0.1" d="M273.14 388.566H323.18L273.14 389.777V388.566Z" fill="black"/>
<path opacity="0.1" d="M348.94 389.777L315.52 390.402H349.06L348.94 389.777Z" fill="black"/>
<path d="M357.72 360.152H281.8V375.852H357.72V360.152Z" fill="white"/>
<path opacity="0.1" d="M357.72 360.152H281.8V375.852H357.72V360.152Z" fill="black"/>
<path opacity="0.1" d="M313.78 360.152H281.8V375.852H313.78V360.152Z" fill="black"/>
<path opacity="0.1" d="M281.8 362.413H349.38L281.8 364.35V362.413Z" fill="black"/>
<path opacity="0.1" d="M357.72 365.137L299.14 366.61H357.72V365.137Z" fill="black"/>
<path opacity="0.1" d="M284.9 369.536L313.78 368.345L356.24 369.536L313.78 370.202L284.9 369.536Z" fill="black"/>
<path opacity="0.1" d="M281.8 372.866H331.84L281.8 374.056V372.866Z" fill="black"/>
<path opacity="0.1" d="M357.62 374.056L324.2 374.682H357.72L357.62 374.056Z" fill="black"/>
<path d="M408.3 406.95L410.26 399.423H491.38L528.72 403.196L530.14 406.95H408.3Z" fill="#263238"/>
<path opacity="0.4" d="M491.38 399.423V406.95H408.3L410.26 399.423H491.38Z" fill="black"/>
<path d="M475.08 363.401C475.189 364.314 475.102 365.239 474.827 366.116C474.551 366.992 474.093 367.798 473.483 368.481C472.873 369.163 472.125 369.706 471.29 370.073C470.454 370.439 469.551 370.621 468.64 370.606H344.4C342.457 370.563 340.596 369.808 339.164 368.483C337.733 367.157 336.828 365.351 336.62 363.401L329.24 283.146C329.16 282.362 329.214 281.57 329.4 280.805C329.745 279.395 330.554 278.146 331.695 277.262C332.836 276.379 334.242 275.913 335.68 275.941H460C461.943 275.984 463.804 276.739 465.235 278.064C466.667 279.39 467.571 281.196 467.78 283.146L475.08 363.401Z" fill="#263238"/>
<path opacity="0.4" d="M468.2 370.606H344.4C342.457 370.563 340.596 369.808 339.164 368.483C337.733 367.157 336.828 365.351 336.62 363.401L329.24 283.146C329.16 282.362 329.214 281.57 329.4 280.805H453.2C455.143 280.847 457.004 281.602 458.435 282.928C459.867 284.253 460.771 286.06 460.98 288.009L468.36 368.265C468.44 369.049 468.386 369.84 468.2 370.606V370.606Z" fill="black"/>
<path d="M382.84 321.387H408.54L401.7 395.629L442.34 401.784V406.95H356.74V401.784L374.28 395.629L382.84 321.387Z" fill="#263238"/>
<path opacity="0.1" d="M408.54 321.387L389.5 405.779L374.28 405.315L382.84 321.387H408.54Z" fill="white"/>
<path d="M408.42 730.657H396.18L374.16 421.399H390.42L408.42 730.657Z" fill="#263238"/>
<path opacity="0.4" d="M408.44 730.657H396.18L375.24 436.776L374.16 421.903H390.42L391.3 436.776L408.44 730.657Z" fill="white"/>
<path opacity="0.2" d="M391.3 436.029H375.24L374.16 421.903H390.42L391.3 436.029Z" fill="black"/>
<path d="M498.34 730.657H486.1L484.1 421.399H500.34L498.34 730.657Z" fill="#263238"/>
<path opacity="0.5" d="M500.36 421.903L500.04 471.808L498.36 730.657H486.1L484.42 471.808L484.1 421.903H500.36Z" fill="white"/>
<path opacity="0.2" d="M500.36 421.903L500.04 472.353H484.42L484.1 421.903H500.36Z" fill="black"/>
<path d="M628.42 730.657H616.18L594.16 421.399H610.42L628.42 730.657Z" fill="#263238"/>
<path opacity="0.5" d="M628.44 730.657H616.18L595.24 436.776L594.16 421.903H610.42L611.3 436.776L628.44 730.657Z" fill="white"/>
<path opacity="0.2" d="M611.3 436.029H595.24L594.16 421.903H610.42L611.3 436.029Z" fill="black"/>
<path d="M268.26 730.657H256.02L274.02 421.399H290.28L268.26 730.657Z" fill="#263238"/>
<path opacity="0.5" d="M290.28 421.903L289.2 436.776L268.26 730.657H256.02L273.14 436.776L274.02 421.903H290.28Z" fill="white"/>
<path opacity="0.2" d="M274.02 421.903H290.28L289.2 436.029H273.14L274.02 421.903Z" fill="black"/>
<path d="M261.14 413.69H623.3V424.809C623.3 425.382 623.188 425.948 622.971 426.477C622.754 427.006 622.436 427.487 622.035 427.891C621.633 428.296 621.157 428.617 620.633 428.836C620.109 429.055 619.547 429.168 618.98 429.168H265.46C264.314 429.168 263.215 428.709 262.405 427.891C261.595 427.074 261.14 425.965 261.14 424.809V413.69Z" fill="#FD2D55"/>
<path opacity="0.6" d="M261.14 413.69H623.3V424.809C623.3 425.382 623.188 425.948 622.971 426.477C622.754 427.006 622.436 427.487 622.035 427.891C621.633 428.296 621.157 428.617 620.633 428.836C620.109 429.055 619.547 429.168 618.98 429.168H265.46C264.314 429.168 263.215 428.709 262.405 427.891C261.595 427.074 261.14 425.965 261.14 424.809V413.69Z" fill="white"/>
<path opacity="0.2" d="M623.3 413.67H261.14V421.419H623.3V413.67Z" fill="black"/>
<path d="M630.9 415.708H253.54C252.394 415.708 251.295 415.249 250.485 414.431C249.675 413.614 249.22 412.505 249.22 411.349C249.22 410.191 249.674 409.08 250.484 408.26C251.294 407.439 252.392 406.975 253.54 406.97H630.9C632.048 406.975 633.146 407.439 633.956 408.26C634.765 409.08 635.22 410.191 635.22 411.349C635.22 412.505 634.765 413.614 633.955 414.431C633.145 415.249 632.046 415.708 630.9 415.708V415.708Z" fill="#FD2D55"/>
<path opacity="0.6" d="M630.9 415.708H253.54C252.394 415.708 251.295 415.249 250.485 414.431C249.675 413.614 249.22 412.505 249.22 411.349C249.22 410.191 249.674 409.08 250.484 408.26C251.294 407.439 252.392 406.975 253.54 406.97H630.9C632.048 406.975 633.146 407.439 633.956 408.26C634.765 409.08 635.22 410.191 635.22 411.349C635.22 412.505 634.765 413.614 633.955 414.431C633.145 415.249 632.046 415.708 630.9 415.708V415.708Z" fill="white"/>
<path d="M541.62 393.51L546.26 386.487C546.717 385.797 547.336 385.232 548.062 384.841C548.787 384.451 549.597 384.247 550.42 384.247H556.3C556.788 384.249 557.273 384.324 557.74 384.469L578.72 390.887C579.912 391.246 580.927 392.046 581.56 393.127L584.58 398.232L541.62 393.51Z" fill="#FD2D55"/>
<path opacity="0.2" d="M584.58 398.232L554 394.882L541.58 393.51L546.22 386.487C546.677 385.797 547.296 385.232 548.022 384.841C548.748 384.451 549.558 384.247 550.38 384.247H556.26C556.755 384.25 557.246 384.325 557.72 384.469L558.18 384.611L578.68 390.887C579.879 391.243 580.9 392.043 581.54 393.127L584.58 398.232Z" fill="black"/>
<path opacity="0.2" d="M584.58 398.232L554 394.882L558.18 384.611L578.68 390.887C579.879 391.243 580.9 392.043 581.54 393.127L584.58 398.232Z" fill="black"/>
<path d="M599.1 406.284V406.95H534.26L536.66 397.485C537.105 395.747 538.111 394.208 539.52 393.111C540.929 392.015 542.661 391.424 544.44 391.431H573.2C574.156 391.427 575.105 391.598 576 391.936L579.6 393.288L593.88 398.656C595.421 399.232 596.749 400.274 597.683 401.638C598.617 403.003 599.112 404.625 599.1 406.284Z" fill="#FD2D55"/>
<path opacity="0.2" d="M599.1 406.284V406.95H572.48L573.9 396.719C573.991 396.084 574.222 395.478 574.576 394.946C574.929 394.413 575.396 393.967 575.943 393.64C576.489 393.313 577.101 393.113 577.734 393.056C578.367 392.999 579.004 393.085 579.6 393.308L593.88 398.676C595.418 399.251 596.744 400.289 597.678 401.65C598.611 403.011 599.108 404.629 599.1 406.284Z" fill="black"/>
<path d="M576.62 400.008L585.1 374.359C585.182 374.098 585.321 373.858 585.505 373.656C585.69 373.455 585.916 373.296 586.168 373.192C586.419 373.088 586.691 373.042 586.962 373.055C587.234 373.068 587.499 373.141 587.74 373.269V373.269C588.109 373.483 588.401 373.809 588.573 374.201C588.746 374.593 588.79 375.03 588.7 375.449L581.56 402.813C581.56 402.813 576.82 404.75 576.62 400.008Z" fill="#263238"/>
<path opacity="0.2" d="M541.62 404.831H537.86L538.58 401.098H542.34L541.62 404.831Z" fill="black"/>
<path opacity="0.2" d="M547.22 404.69H543.46L544.18 400.956H547.94L547.22 404.69Z" fill="black"/>
</svg>
